<svg width="61" height="60" viewBox="0 0 61 60" fill="none" xmlns="http://www.w3.org/2000/svg">
<path d="M4.13965 24.1251C5.68779 12.3652 18.6766 4.37555 33.1504 6.2804C47.6244 8.18554 59.3768 20.0349 57.8291 31.795C56.2811 43.5552 42.019 50.7734 27.5449 48.8683C26.4778 48.7278 25.4326 48.5357 24.4121 48.299L14.6787 52.8058C12.9585 53.602 11.1993 51.7811 12.0537 50.089L14.9395 44.3722C7.51676 39.6652 3.09658 32.0504 4.13965 24.1251Z" fill="#232332"/>
<ellipse cx="31.2043" cy="28.2952" rx="2.81465" ry="2.41255" transform="rotate(131.808 31.2043 28.2952)" fill="#CACCD8"/>
<ellipse cx="42.722" cy="27.9576" rx="3.07613" ry="2.63669" transform="rotate(141.948 42.722 27.9576)" fill="#CACCD8"/>
<ellipse cx="19.722" cy="27.9576" rx="3.07613" ry="2.63669" transform="rotate(141.948 19.722 27.9576)" fill="#CACCD8"/>
</svg>
