<svg width="12" height="12" viewBox="0 0 12 12" fill="none" xmlns="http://www.w3.org/2000/svg">
<path fill-rule="evenodd" clip-rule="evenodd" d="M4.8039 1.03299C5.18858 0.945939 5.58906 0.900024 5.99996 0.900024C6.41088 0.900024 6.81139 0.945946 7.1961 1.03301C7.64438 1.13446 7.8626 1.52078 7.94797 1.79315C8.01416 2.00431 8.16075 2.19578 8.38111 2.31897C8.58754 2.43438 8.82016 2.46814 9.03978 2.42931C9.32245 2.37933 9.75033 2.40325 10.0399 2.74146C10.4079 3.17142 10.7051 3.66183 10.9131 4.19583C11.1052 4.68901 10.8212 5.12736 10.585 5.34704C10.4042 5.51519 10.2961 5.74661 10.2961 6.00001C10.2961 6.25342 10.4042 6.48483 10.585 6.65298C10.8212 6.87267 11.1052 7.31102 10.9131 7.80419C10.7052 8.33804 10.4081 8.82831 10.0402 9.25818C9.75063 9.59652 9.32262 9.6204 9.03989 9.57037C8.82024 9.53151 8.58756 9.56525 8.38109 9.68068C8.16067 9.80391 8.01406 9.99545 7.9479 10.2067C7.86256 10.4791 7.64434 10.8656 7.19593 10.9671C6.81127 11.0541 6.41083 11.1 5.99996 11.1C5.58906 11.1 5.18859 11.0541 4.80391 10.9671C4.35561 10.8656 4.13739 10.4793 4.05201 10.2069C3.98583 9.99573 3.83923 9.80426 3.61887 9.68106C3.41243 9.56565 3.1798 9.5319 2.96018 9.57073C2.67749 9.62072 2.2496 9.59682 1.96006 9.25859C1.59201 8.82864 1.29478 8.33825 1.08679 7.80426C0.894694 7.31106 1.17878 6.87269 1.41499 6.65301C1.5958 6.48486 1.70394 6.25343 1.70394 6.00001C1.70394 5.74659 1.5958 5.51517 1.415 5.34702C1.17878 5.12733 0.894701 4.68896 1.0868 4.19576C1.29478 3.6618 1.59199 3.17143 1.96002 2.74151C2.24956 2.40327 2.67746 2.37936 2.96015 2.42935C3.17977 2.46819 3.41241 2.43444 3.61885 2.31902C3.83922 2.19583 3.98581 2.00434 4.052 1.79317C4.13737 1.52079 4.35559 1.13444 4.8039 1.03299ZM5.02198 1.95767C5.02021 1.95933 5.01769 1.9619 5.01445 1.96571C4.99785 1.98516 4.97571 2.02244 4.95852 2.07729C4.82086 2.5165 4.5179 2.90478 4.08243 3.14824C3.67639 3.37524 3.22027 3.44009 2.79471 3.36483C2.74402 3.35587 2.70558 3.35852 2.68409 3.36367C2.68053 3.36453 2.67789 3.36531 2.67603 3.36594C2.38082 3.71226 2.14317 4.10479 1.9762 4.52988C1.97684 4.53211 1.97779 4.53506 1.97921 4.53883C1.98945 4.56601 2.01579 4.60842 2.06197 4.65137C2.42413 4.98819 2.65394 5.46688 2.65394 6.00001C2.65394 6.53315 2.42413 7.01184 2.06196 7.34866C2.01578 7.39161 1.98945 7.43402 1.9792 7.4612C1.97778 7.46496 1.97683 7.46792 1.97619 7.47014C2.14317 7.89525 2.38083 8.28781 2.67607 8.63414C2.67793 8.63477 2.68056 8.63556 2.68412 8.63641C2.70561 8.64156 2.74405 8.64421 2.79474 8.63525C3.2203 8.55999 3.67641 8.62485 4.08245 8.85185C4.51791 9.0953 4.82087 9.48356 4.95853 9.92276C4.97572 9.97762 4.99786 10.0149 5.01446 10.0343C5.0177 10.0381 5.02022 10.0407 5.02199 10.0424C5.33569 10.1127 5.66301 10.15 5.99996 10.15C6.33689 10.15 6.66418 10.1127 6.97786 10.0424C6.97963 10.0407 6.98215 10.0382 6.9854 10.0344C7.002 10.0149 7.02414 9.9776 7.04132 9.92273C7.17893 9.48339 7.48193 9.09498 7.91751 8.85147C8.32361 8.62444 8.77981 8.5596 9.20542 8.63491C9.25613 8.64388 9.29458 8.64123 9.31608 8.63608C9.31964 8.63522 9.32227 8.63444 9.32413 8.63381C9.61924 8.28754 9.85682 7.89508 10.0237 7.47009C10.0231 7.46786 10.0222 7.46491 10.0207 7.46114C10.0105 7.43396 9.98416 7.39156 9.93798 7.34861C9.57585 7.01179 9.34606 6.53312 9.34606 6.00001C9.34606 5.46691 9.57584 4.98824 9.93797 4.65142C9.98415 4.60847 10.0105 4.56606 10.0207 4.53889C10.0221 4.53512 10.0231 4.53217 10.0237 4.52994C9.85676 4.10482 9.61909 3.71225 9.32385 3.36591C9.32199 3.36528 9.31936 3.36449 9.3158 3.36364C9.29431 3.35849 9.25587 3.35583 9.20518 3.3648C8.77964 3.44004 8.32355 3.37517 7.91753 3.14819C7.48208 2.90474 7.17912 2.51648 7.04146 2.07729C7.02427 2.02244 7.00213 1.98517 6.98553 1.96572C6.98229 1.96192 6.97977 1.95935 6.978 1.95769C6.66428 1.88733 6.33694 1.85002 5.99996 1.85002C5.663 1.85002 5.33568 1.88733 5.02198 1.95767ZM10.0249 4.52452C10.025 4.52452 10.0249 4.52471 10.0249 4.52511ZM1.97498 7.47557C1.97497 7.47557 1.97499 7.47538 1.97505 7.47498ZM4.02502 6.00002C4.02502 4.90926 4.90926 4.02502 6.00003 4.02502C7.09079 4.02502 7.97503 4.90926 7.97503 6.00002C7.97503 7.09079 7.09079 7.97502 6.00003 7.97502C4.90926 7.97502 4.02502 7.09079 4.02502 6.00002ZM6.00003 4.97502C5.43393 4.97502 4.97502 5.43393 4.97502 6.00002C4.97502 6.56611 5.43393 7.02502 6.00003 7.02502C6.56612 7.02502 7.02503 6.56611 7.02503 6.00002C7.02503 5.43393 6.56612 4.97502 6.00003 4.97502Z" fill="#35363F"/>
</svg>
