<svg width="61" height="60" viewBox="0 0 61 60" fill="none" xmlns="http://www.w3.org/2000/svg">
<path d="M2.62311 46.4158C6.21728 31.6101 21.1381 22.5224 35.9496 26.1179C50.0076 29.5306 58.9129 43.1423 56.7095 57.1777L2.07534 56.5286C1.64145 53.245 1.79492 49.8275 2.62311 46.4158Z" fill="#232332"/>
<ellipse cx="34.1874" cy="17.7" rx="14.2423" ry="12.2274" transform="rotate(-175.531 34.1874 17.7)" fill="#232332"/>
<path d="M54.9531 15.964L49.9166 0.615479L45.7194 16.7314C45.7194 16.7314 45.7667 20.3449 49.9166 20C54.0665 19.6551 54.9531 15.964 54.9531 15.964Z" fill="#CACCD8"/>
<path d="M28.0827 13.9175L31.9702 13.0648C32.5994 12.9267 33.193 13.4108 33.1844 14.0549L33.1791 14.4499C33.1728 14.9257 32.832 15.3311 32.3644 15.4193L28.5136 16.1451C27.944 16.2525 27.4027 15.8546 27.3352 15.2789L27.3038 15.0108C27.2439 14.5004 27.5807 14.0277 28.0827 13.9175Z" fill="#8989A6"/>
<path d="M40.6517 16.2684L36.7642 15.4156C36.135 15.2776 35.5414 15.7617 35.55 16.4057L35.5553 16.8007C35.5616 17.2765 35.9023 17.682 36.3699 17.7701L40.2207 18.4959C40.7904 18.6033 41.3316 18.2054 41.3992 17.6297L41.4306 17.3616C41.4905 16.8512 41.1537 16.3785 40.6517 16.2684Z" fill="#8989A6"/>
</svg>
