<svg width="12" height="12" viewBox="0 0 12 12" fill="none" xmlns="http://www.w3.org/2000/svg">
<path d="M5.99981 1.17505C6.24834 1.17505 6.44981 1.37652 6.44981 1.62505V5.55005H10.3748C10.6233 5.55005 10.8248 5.75152 10.8248 6.00005C10.8248 6.24857 10.6233 6.45005 10.3748 6.45005H6.44981V10.375C6.44981 10.6236 6.24834 10.825 5.99981 10.825C5.75128 10.825 5.54981 10.6236 5.54981 10.375V6.45005H1.62481C1.37628 6.45005 1.1748 6.24857 1.1748 6.00005C1.1748 5.75152 1.37628 5.55005 1.62481 5.55005H5.54981V1.62505C5.54981 1.37652 5.75128 1.17505 5.99981 1.17505Z" fill="#35363F"/>
</svg>
