<svg width="24" height="24" viewBox="0 0 24 24" fill="none" xmlns="http://www.w3.org/2000/svg">
<path d="M13.3369 2.83203C14.5816 2.83203 15.6974 3.60064 16.1406 4.76367L16.2471 5.04297C16.5104 5.73398 17.1334 6.22346 17.8672 6.31543L20.3721 6.62891C21.8733 6.81656 22.9999 8.09259 23 9.60547V18.166C22.9998 19.8227 21.6567 21.166 20 21.166H4C2.3433 21.166 1.00024 19.8227 1 18.166V9.60547C1.00011 8.09259 2.12671 6.81656 3.62793 6.62891L6.13281 6.31543C6.82034 6.2292 7.411 5.79398 7.69922 5.1709L7.75293 5.04395L7.85938 4.76367C8.30264 3.60066 9.41843 2.83203 10.6631 2.83203H13.3369ZM10.6631 4.53223C10.1235 4.53223 9.64026 4.86547 9.44824 5.36914L9.44727 5.37012L9.34082 5.65039C8.85318 6.92783 7.70051 7.832 6.34375 8.00195L3.83887 8.31543C3.18824 8.39676 2.7003 8.95008 2.7002 9.60547V18.166C2.70043 18.8841 3.28251 19.4658 4 19.4658H20C20.6727 19.4658 21.2262 18.9545 21.293 18.2988L21.2998 18.166V9.60547C21.2997 8.99109 20.8709 8.46711 20.2812 8.33691L20.1611 8.31543L17.6562 8.00195C16.2985 7.83194 15.1453 6.92619 14.6582 5.64746L14.5518 5.36914C14.3598 4.86547 13.8765 4.53223 13.3369 4.53223H10.6631ZM12 8.79102C14.3865 8.79112 16.3213 10.6379 16.3213 12.916C16.3211 15.194 14.3865 17.0409 12 17.041C9.61352 17.0409 7.6789 15.194 7.67871 12.916C7.67875 10.6379 9.61343 8.79109 12 8.79102ZM12 10.4912C10.477 10.4913 9.37894 11.6504 9.37891 12.916C9.3791 14.1815 10.4771 15.3407 12 15.3408C13.5229 15.3407 14.6209 14.1815 14.6211 12.916C14.6211 11.6504 13.523 10.4913 12 10.4912Z" fill="white"/>
</svg>
