<svg width="20" height="20" viewBox="0 0 20 20" fill="none" xmlns="http://www.w3.org/2000/svg">
<path d="M15.5615 3.37577C15.8561 3.13554 16.2909 3.15306 16.5654 3.42753C16.8399 3.70214 16.8574 4.13694 16.6172 4.43144L16.5654 4.48808L11.0566 9.99199L16.5654 15.4969L16.6162 15.5535C16.8568 15.848 16.8399 16.2827 16.5654 16.5574C16.2909 16.8321 15.8562 16.8494 15.5615 16.6092L15.5049 16.5574L9.9961 11.0525L4.48828 16.5574L4.43164 16.6092C4.13699 16.8494 3.70227 16.8321 3.42774 16.5574C3.15324 16.2827 3.1364 15.848 3.37695 15.5535L3.42774 15.4969L8.93555 9.99199L3.42774 4.48808L3.37598 4.43144C3.13581 4.13694 3.1533 3.70214 3.42774 3.42753C3.7023 3.15306 4.13708 3.13554 4.43164 3.37577L4.48828 3.42753L9.9961 8.93144L15.5049 3.42753L15.5615 3.37577Z" fill="#ADAFBB"/>
</svg>
