<svg width="20" height="20" viewBox="0 0 20 20" fill="none" xmlns="http://www.w3.org/2000/svg">
<path d="M16.7432 14.2539C17.1213 14.2924 17.416 14.6117 17.416 15C17.416 15.3883 17.1213 15.7076 16.7432 15.7461L16.666 15.75H3.33301C2.91894 15.7498 2.58301 15.4141 2.58301 15C2.58301 14.5859 2.91894 14.2502 3.33301 14.25H16.666L16.7432 14.2539ZM16.7432 9.25391C17.1213 9.2924 17.416 9.61174 17.416 10C17.416 10.3883 17.1213 10.7076 16.7432 10.7461L16.666 10.75H3.33301C2.91894 10.7498 2.58301 10.4141 2.58301 10C2.58301 9.58589 2.91894 9.25017 3.33301 9.25H16.666L16.7432 9.25391ZM16.7432 4.25391C17.1213 4.2924 17.416 4.61174 17.416 5C17.416 5.38826 17.1213 5.7076 16.7432 5.74609L16.666 5.75H3.33301C2.91894 5.74983 2.58301 5.41411 2.58301 5C2.58301 4.58589 2.91894 4.25017 3.33301 4.25H16.666L16.7432 4.25391Z" fill="#ADAFBB"/>
</svg>
