<svg width="28" height="22" viewBox="0 0 28 22" fill="none" xmlns="http://www.w3.org/2000/svg">
<mask id="path-1-inside-1_4153_78780" fill="white">
<path d="M24.5 0C26.1569 2.25489e-07 27.5 1.34315 27.5 3V19C27.5 20.6569 26.1569 22 24.5 22H3C1.34315 22 1.59602e-07 20.6569 0 19V3C0 1.34315 1.34315 4.0266e-09 3 0H24.5ZM11.5664 16.8564L7.94434 12.833L3.94629 17.2744C3.3672 17.9179 3.82391 18.9431 4.68945 18.9434H9.77832L9.77734 18.9443H22.2705C23.1247 18.9441 23.5852 17.9425 23.0293 17.2939L17.1113 10.3887L11.5664 16.8564ZM10.3887 4.88867C9.10806 4.88879 8.07036 5.92737 8.07031 7.20801C8.07031 8.48868 9.10802 9.52722 10.3887 9.52734C11.6694 9.52734 12.708 8.48876 12.708 7.20801C12.708 5.9273 11.6694 4.88867 10.3887 4.88867Z"/>
</mask>
<path d="M24.5 0C26.1569 2.25489e-07 27.5 1.34315 27.5 3V19C27.5 20.6569 26.1569 22 24.5 22H3C1.34315 22 1.59602e-07 20.6569 0 19V3C0 1.34315 1.34315 4.0266e-09 3 0H24.5ZM11.5664 16.8564L7.94434 12.833L3.94629 17.2744C3.3672 17.9179 3.82391 18.9431 4.68945 18.9434H9.77832L9.77734 18.9443H22.2705C23.1247 18.9441 23.5852 17.9425 23.0293 17.2939L17.1113 10.3887L11.5664 16.8564ZM10.3887 4.88867C9.10806 4.88879 8.07036 5.92737 8.07031 7.20801C8.07031 8.48868 9.10802 9.52722 10.3887 9.52734C11.6694 9.52734 12.708 8.48876 12.708 7.20801C12.708 5.9273 11.6694 4.88867 10.3887 4.88867Z" fill="#CACCD8"/>
<path d="M24.5 0V-2V0ZM27.5 3H29.5H27.5ZM24.5 22V24V22ZM3 22L3 24H3V22ZM0 19H-2H0ZM3 0V-2V0ZM11.5664 16.8564L10.08 18.1946L11.6031 19.8865L13.0848 18.1582L11.5664 16.8564ZM7.94434 12.833L9.43075 11.4949L7.94428 9.8437L6.45788 11.4949L7.94434 12.833ZM3.94629 17.2744L2.45983 15.9363L2.4597 15.9365L3.94629 17.2744ZM4.68945 18.9434L4.68882 20.9434H4.68945V18.9434ZM9.77832 18.9434L11.1925 20.3576L14.6067 16.9434H9.77832V18.9434ZM9.77734 18.9443L8.36313 17.5301L4.94892 20.9443H9.77734V18.9443ZM22.2705 18.9443V20.9443H22.271L22.2705 18.9443ZM23.0293 17.2939L21.5107 18.5954L21.5108 18.5955L23.0293 17.2939ZM17.1113 10.3887L18.6299 9.0872L17.1116 7.31554L15.5929 9.08694L17.1113 10.3887ZM10.3887 4.88867V2.88867H10.3885L10.3887 4.88867ZM8.07031 7.20801L6.07031 7.20793V7.20801H8.07031ZM10.3887 9.52734L10.3885 11.5273H10.3887V9.52734ZM12.708 7.20801H14.708V7.20793L12.708 7.20801ZM24.5 0V2C25.0523 2 25.5 2.44772 25.5 3H27.5H29.5C29.5 0.238576 27.2614 -2 24.5 -2V0ZM27.5 3H25.5V19H27.5H29.5V3H27.5ZM27.5 19H25.5C25.5 19.5523 25.0523 20 24.5 20V22V24C27.2614 24 29.5 21.7614 29.5 19H27.5ZM24.5 22V20H3V22V24H24.5V22ZM3 22L3 20C2.44772 20 2 19.5523 2 19H0H-2C-2 21.7614 0.238577 24 3 24L3 22ZM0 19H2V3H0H-2V19H0ZM0 3H2C2 2.44772 2.44772 2 3 2V0V-2C0.238576 -2 -2 0.238576 -2 3H0ZM3 0V2H24.5V0V-2H3V0ZM11.5664 16.8564L13.0528 15.5183L9.43075 11.4949L7.94434 12.833L6.45793 14.1711L10.08 18.1946L11.5664 16.8564ZM7.94434 12.833L6.45788 11.4949L2.45983 15.9363L3.94629 17.2744L5.43275 18.6125L9.43079 14.1711L7.94434 12.833ZM3.94629 17.2744L2.4597 15.9365C0.721794 17.8675 2.09304 20.9425 4.68882 20.9434L4.68945 18.9434L4.69008 16.9434C5.55477 16.9436 6.0126 17.9682 5.43288 18.6123L3.94629 17.2744ZM4.68945 18.9434V20.9434H9.77832V18.9434V16.9434H4.68945V18.9434ZM9.77832 18.9434L8.36411 17.5291L8.36313 17.5301L9.77734 18.9443L11.1916 20.3585L11.1925 20.3576L9.77832 18.9434ZM9.77734 18.9443V20.9443H22.2705V18.9443V16.9443H9.77734V18.9443ZM22.2705 18.9443L22.271 20.9443C24.8336 20.9437 26.2156 17.9382 24.5478 15.9924L23.0293 17.2939L21.5108 18.5955C20.9548 17.9469 21.4157 16.9445 22.27 16.9443L22.2705 18.9443ZM23.0293 17.2939L24.5479 15.9925L18.6299 9.0872L17.1113 10.3887L15.5927 11.6901L21.5107 18.5954L23.0293 17.2939ZM17.1113 10.3887L15.5929 9.08694L10.048 15.5547L11.5664 16.8564L13.0848 18.1582L18.6297 11.6904L17.1113 10.3887ZM10.3887 4.88867L10.3885 2.88867C8.00246 2.8889 6.07041 4.82377 6.07031 7.20793L8.07031 7.20801L10.0703 7.20809C10.0703 7.03098 10.2137 6.88869 10.3889 6.88867L10.3887 4.88867ZM8.07031 7.20801H6.07031C6.07031 9.59234 8.00251 11.5271 10.3885 11.5273L10.3887 9.52734L10.3889 7.52734C10.2135 7.52733 10.0703 7.38502 10.0703 7.20801H8.07031ZM10.3887 9.52734V11.5273C12.774 11.5273 14.708 9.59333 14.708 7.20801H12.708H10.708C10.708 7.38419 10.5649 7.52734 10.3887 7.52734V9.52734ZM12.708 7.20801L14.708 7.20793C14.7079 4.82279 12.774 2.88867 10.3887 2.88867V4.88867V6.88867C10.5647 6.88867 10.708 7.03181 10.708 7.20809L12.708 7.20801Z" fill="#CACCD8" mask="url(#path-1-inside-1_4153_78780)"/>
</svg>
