<svg width="24" height="24" viewBox="0 0 24 24" fill="none" xmlns="http://www.w3.org/2000/svg">
<path d="M15.0156 18.3018C15.3694 18.0557 15.859 18.1131 16.1455 18.4473C16.4317 18.7815 16.4135 19.2741 16.1162 19.5859L16.0527 19.6455L12.5527 22.6455C12.2742 22.884 11.8797 22.9144 11.5723 22.7354L11.4473 22.6455L7.94727 19.6455L7.88379 19.5859C7.5866 19.2741 7.5683 18.7815 7.85449 18.4473C8.14094 18.1131 8.63062 18.0558 8.98438 18.3018L9.05273 18.3545L12 20.8799L14.9473 18.3545L15.0156 18.3018ZM20 3C21.6569 3 23 4.34315 23 6V13.5C23 15.1569 21.6569 16.5 20 16.5H4L3.8457 16.4961C2.26055 16.4158 1 15.1051 1 13.5V6C1 4.34315 2.34315 3 4 3H20ZM4 4.7002C3.28203 4.7002 2.7002 5.28203 2.7002 6V13.5C2.7002 14.218 3.28203 14.7998 4 14.7998H20C20.718 14.7998 21.2998 14.218 21.2998 13.5V6C21.2998 5.28203 20.718 4.7002 20 4.7002H4ZM8.7998 10C9.35209 10 9.7998 10.4477 9.7998 11C9.7998 11.5523 9.35209 12 8.7998 12H8.40039C7.84811 12 7.40039 11.5523 7.40039 11C7.40039 10.4477 7.84811 10 8.40039 10H8.7998ZM12.2002 10C12.7524 10.0001 13.2002 10.4478 13.2002 11C13.2002 11.5522 12.7524 11.9999 12.2002 12H11.7998C11.2476 11.9999 10.7998 11.5522 10.7998 11C10.7998 10.4478 11.2476 10.0001 11.7998 10H12.2002ZM15.5996 10C16.1519 10 16.5996 10.4477 16.5996 11C16.5996 11.5523 16.1519 12 15.5996 12H15.2002C14.6479 12 14.2002 11.5523 14.2002 11C14.2002 10.4477 14.6479 10 15.2002 10H15.5996ZM7.09961 6.5C7.65189 6.5 8.09961 6.94772 8.09961 7.5C8.09961 8.05228 7.65189 8.5 7.09961 8.5H6.7002C6.14791 8.5 5.7002 8.05228 5.7002 7.5C5.7002 6.94772 6.14791 6.5 6.7002 6.5H7.09961ZM10.5 6.5C11.0523 6.50003 11.5 6.94773 11.5 7.5C11.5 8.05227 11.0523 8.49997 10.5 8.5H10.0996C9.54748 8.49982 9.09961 8.05217 9.09961 7.5C9.09961 6.94783 9.54748 6.50018 10.0996 6.5H10.5ZM13.9004 6.5C14.4525 6.50024 14.9004 6.94786 14.9004 7.5C14.9004 8.05214 14.4525 8.49976 13.9004 8.5H13.5C12.9477 8.5 12.5 8.05228 12.5 7.5C12.5 6.94772 12.9477 6.5 13.5 6.5H13.9004ZM17.2998 6.5C17.8521 6.5 18.2998 6.94772 18.2998 7.5C18.2998 8.05228 17.8521 8.5 17.2998 8.5H16.9004C16.3481 8.5 15.9004 8.05228 15.9004 7.5C15.9004 6.94772 16.3481 6.5 16.9004 6.5H17.2998Z" fill="#35363F"/>
</svg>
