<svg width="60" height="60" viewBox="0 0 60 60" fill="none" xmlns="http://www.w3.org/2000/svg">
<path d="M47.8938 5.16797C49.8792 4.73198 51.7676 5.17335 53.26 6.16895L38.2805 20.3604C37.6557 20.0822 36.9486 19.9239 36.1995 19.9238C33.6614 19.924 31.6029 21.7245 31.6028 23.9453C31.6028 26.1662 33.6613 27.9666 36.1995 27.9668C38.7376 27.9667 40.7952 26.1663 40.7952 23.9453C40.7951 23.4096 40.6736 22.899 40.4563 22.4316L55.3479 8.32324C56.3181 9.88079 56.696 11.8322 56.1506 13.8398L48.093 43.4941L25.1301 50.417L28.4387 54.8584L24.0227 57.2725C22.2336 58.2503 19.9951 57.7254 18.8264 56.0547L3.7229 34.4639C2.57996 32.83 2.81486 30.6034 4.27368 29.2441L7.27271 26.4492L10.6643 31.001L16.8479 11.9863L47.8938 5.16797Z" fill="#232332"/>
<path d="M10.54 1.08207C10.7125 0.676327 11.2876 0.676327 11.4602 1.08207L13.319 5.45259C13.3696 5.57161 13.4644 5.66639 13.5834 5.71701L17.954 7.57585C18.3597 7.74841 18.3597 8.32351 17.954 8.49607L13.5834 10.3549C13.4644 10.4055 13.3696 10.5003 13.319 10.6193L11.4602 14.9898C11.2876 15.3956 10.7125 15.3956 10.54 14.9898L8.68112 10.6193C8.6305 10.5003 8.53573 10.4055 8.4167 10.3549L4.04618 8.49607C3.64044 8.32351 3.64044 7.74841 4.04618 7.57585L8.4167 5.71701C8.53573 5.66639 8.6305 5.57161 8.68112 5.45259L10.54 1.08207Z" fill="#28C86E"/>
<path d="M49.0399 43.939C49.2125 43.5333 49.7876 43.5333 49.9601 43.939L51.9788 48.6854C52.0294 48.8044 52.1242 48.8992 52.2432 48.9498L56.9896 50.9685C57.3954 51.1411 57.3954 51.7162 56.9896 51.8887L52.2432 53.9074C52.1242 53.958 52.0294 54.0528 51.9788 54.1718L49.9601 58.9182C49.7876 59.324 49.2125 59.324 49.0399 58.9182L47.0212 54.1718C46.9706 54.0528 46.8758 53.958 46.7568 53.9074L42.0104 51.8887C41.6047 51.7162 41.6047 51.1411 42.0104 50.9685L46.7568 48.9498C46.8758 48.8992 46.9706 48.8044 47.0212 48.6854L49.0399 43.939Z" fill="#28C86E"/>
<path d="M30.9798 50.5424L37.4567 38.3424L41.6456 41.9967L35.1848 53.3412L30.9798 50.5424Z" fill="#8989A6"/>
<path d="M19.7148 8.69519L21.7254 18.8892L25.9693 16.7049L24.2933 6.80445L19.7148 8.69519Z" fill="#8989A6"/>
<ellipse cx="7.3416" cy="54.7159" rx="3.75" ry="3.21429" transform="rotate(-158.647 7.3416 54.7159)" fill="#CACCD8"/>
<ellipse cx="38.6365" cy="3.06697" rx="2.89945" ry="2.48525" transform="rotate(141.948 38.6365 3.06697)" fill="#CACCD8"/>
</svg>
