<svg width="24" height="24" viewBox="0 0 24 24" fill="none" xmlns="http://www.w3.org/2000/svg">
<path fill-rule="evenodd" clip-rule="evenodd" d="M20.4441 4.76457C20.1028 4.67923 19.7251 4.71002 19.3652 4.85252C19.1085 4.95416 18.904 5.10812 18.7369 5.25355C18.5836 5.38692 18.4136 5.557 18.2349 5.73571L6.4958 17.4748L5.07621 21.7989C4.94835 22.1884 5.31774 22.5578 5.70722 22.4299L10.0313 21.0103L21.7704 9.27125C21.9491 9.09256 22.1192 8.9225 22.2525 8.76925C22.398 8.60212 22.5519 8.39758 22.6536 8.14089C22.7961 7.78098 22.8269 7.4033 22.7415 7.06197C22.6806 6.81853 22.5582 6.63651 22.4382 6.49103C22.3283 6.35761 22.1838 6.2132 22.032 6.06146L21.4447 5.47407C21.2929 5.32229 21.1485 5.17784 21.0151 5.06784C20.8696 4.94789 20.6876 4.82544 20.4441 4.76457Z" fill="white"/>
<path d="M7.59961 1.75C8.06905 1.75 8.44922 2.13017 8.44922 2.59961V5.75H11.5996C12.0691 5.75 12.4492 6.13017 12.4492 6.59961C12.4492 7.06905 12.0691 7.44922 11.5996 7.44922H8.44922V10.5996C8.44922 11.0691 8.06905 11.4492 7.59961 11.4492C7.13017 11.4492 6.75 11.0691 6.75 10.5996V7.44922H3.59961C3.13017 7.44922 2.75 7.06905 2.75 6.59961C2.75 6.13017 3.13017 5.75 3.59961 5.75H6.75V2.59961C6.75 2.13017 7.13017 1.75 7.59961 1.75Z" fill="white"/>
</svg>
