<svg width="24" height="24" viewBox="0 0 24 24" fill="none" xmlns="http://www.w3.org/2000/svg">
<path d="M17 1.5C19.7614 1.5 22 3.73858 22 6.5V17.5C22 20.2614 19.7614 22.5 17 22.5H7C4.23858 22.5 2 20.2614 2 17.5V6.5C2 3.73858 4.23858 1.5 7 1.5H17ZM8.84961 15C8.38048 15.0002 8.00021 15.3805 8 15.8496C8 16.3189 8.38035 16.7 8.84961 16.7002H11.1504C11.6197 16.7 12 16.3189 12 15.8496C11.9998 15.3805 11.6195 15.0002 11.1504 15H8.84961ZM8.84961 11C8.38048 11.0002 8.00021 11.3805 8 11.8496C8 12.3189 8.38035 12.7 8.84961 12.7002H15.1504C15.6197 12.7 16 12.3189 16 11.8496C15.9998 11.3805 15.6195 11.0002 15.1504 11H8.84961ZM8.84961 7C8.38048 7.00021 8.00021 7.38048 8 7.84961C8 8.31892 8.38035 8.69998 8.84961 8.7002H15.1504C15.6197 8.69998 16 8.31892 16 7.84961C15.9998 7.38048 15.6195 7.00021 15.1504 7H8.84961Z" fill="#ADAFBB"/>
</svg>
