<svg width="24" height="24" viewBox="0 0 24 24" fill="none" xmlns="http://www.w3.org/2000/svg">
<path d="M12 2.47363C17.799 2.47363 22.5 6.50307 22.5 11.4736C22.5 16.4442 17.799 20.4736 12 20.4736C11.0875 20.4736 10.2025 20.373 9.3584 20.1855C8.41748 20.7647 6.62143 21.6439 4.5332 21.5137C4.17763 21.4914 4.05967 21.0107 4.30664 20.7539C4.76584 20.2765 5.31055 19.5353 5.52832 18.5586C3.07661 16.9111 1.5 14.351 1.5 11.4736C1.5 6.50307 6.20101 2.47363 12 2.47363ZM7.25 10.4736C6.55964 10.4736 6 11.0333 6 11.7236C6 12.414 6.55964 12.9736 7.25 12.9736C7.94036 12.9736 8.5 12.414 8.5 11.7236C8.5 11.0333 7.94036 10.4736 7.25 10.4736ZM12 10.4736C11.3096 10.4736 10.75 11.0333 10.75 11.7236C10.75 12.414 11.3096 12.9736 12 12.9736C12.6904 12.9736 13.25 12.414 13.25 11.7236C13.25 11.0333 12.6904 10.4736 12 10.4736ZM16.75 10.4736C16.0596 10.4736 15.5 11.0333 15.5 11.7236C15.5 12.414 16.0596 12.9736 16.75 12.9736C17.4404 12.9736 18 12.414 18 11.7236C18 11.0333 17.4404 10.4736 16.75 10.4736Z" fill="#ADAFBB"/>
</svg>
