<svg width="24" height="24" viewBox="0 0 24 24" fill="none" xmlns="http://www.w3.org/2000/svg">
<circle cx="12" cy="12" r="12" fill="#F2F2F9"/>
<path d="M17.4404 9.44615H17.5734L17.5239 9.32274C16.5872 6.98892 14.5826 5.57153 12.0861 5.57153C10.4519 5.57153 8.92959 6.15873 7.81548 7.25693C6.70078 8.35571 6 9.96081 6 11.9864C6 14.0201 6.70876 15.6252 7.82739 16.7219C8.94536 17.818 10.4676 18.4013 12.0861 18.4013C13.7909 18.4013 15.2709 17.7983 16.3247 16.7186C17.3785 15.6389 18 14.0889 18 12.2056V11.4385V11.3486H17.9101H11.9765H11.8866V11.4385V13.3172V13.4071H11.9765H15.6436C15.4841 14.3097 15.0754 15.0242 14.4826 15.5182C13.8671 16.0311 13.0469 16.3115 12.0861 16.3115C9.93993 16.3115 8.37166 14.5481 8.37166 11.9864C8.37166 9.42472 9.93993 7.66138 12.0861 7.66138C13.3714 7.66138 14.5587 8.35023 15.074 9.39598L15.0987 9.44615H15.1547H17.4404Z" fill="#DDDDE8" stroke="#DDDDE8" stroke-width="0.299729"/>
</svg>
