<svg width="24" height="24" viewBox="0 0 24 24" fill="none" xmlns="http://www.w3.org/2000/svg">
<g clip-path="url(#clip0_3953_287969)">
<path d="M6.5 5.75C8.27219 5.75 9.70898 7.20507 9.70898 9C9.70898 10.7949 8.2722 12.25 6.5 12.25C4.72786 12.2499 3.29102 10.7949 3.29102 9C3.29102 7.20511 4.72786 5.75006 6.5 5.75Z" fill="#ADAFBB"/>
<path fill-rule="evenodd" clip-rule="evenodd" d="M15.9001 3C13.7462 3 12.0001 4.74609 12.0001 6.9C12.0001 9.05391 13.7462 10.8 15.9001 10.8C18.054 10.8 19.8001 9.05391 19.8001 6.9C19.8001 4.74609 18.054 3 15.9001 3Z" fill="#ADAFBB"/>
<path d="M6.58881 14.8336C6.74688 14.8336 6.90387 14.8379 7.05955 14.8463C7.85259 14.8894 8.1165 15.9239 7.61287 16.591C6.78171 17.692 6.07896 18.9772 5.86821 20.2894C5.76539 20.9296 5.30339 21.4999 4.70535 21.4999H1.45818C1.41047 21.4999 1.34526 21.5004 1.28388 21.4945C0.62215 21.4308 0.0971577 20.853 0.0391336 20.1246C0.0337626 20.0571 0.0341469 19.9845 0.0342098 19.932V19.917C0.0342098 18.3799 0.883282 17.0887 2.06775 16.2195C3.25748 15.3465 4.85817 14.8336 6.58881 14.8336Z" fill="#ADAFBB"/>
<path fill-rule="evenodd" clip-rule="evenodd" d="M16.0678 13.5C13.9644 13.5 12.019 14.1159 10.573 15.1635C9.13338 16.2066 8.10142 17.7558 8.10142 19.6004L8.1014 19.6192C8.10133 19.6822 8.10122 19.7683 8.10775 19.8494C8.17812 20.7235 8.81588 21.4166 9.62026 21.4931C9.69486 21.5002 9.77402 21.5001 9.83201 21.5H22.3035C22.3615 21.5001 22.4407 21.5002 22.5153 21.4931C23.3197 21.4166 23.9574 20.7235 24.0278 19.8494C24.0343 19.7683 24.0342 19.6822 24.0342 19.6192L24.0341 19.6004C24.0341 17.7558 23.0022 16.2066 21.5625 15.1635C20.1165 14.1159 18.1712 13.5 16.0678 13.5Z" fill="#ADAFBB"/>
</g>
<defs>
<clipPath id="clip0_3953_287969">
<rect width="24" height="24" fill="white"/>
</clipPath>
</defs>
</svg>
