<svg width="24" height="24" viewBox="0 0 24 24" fill="none" xmlns="http://www.w3.org/2000/svg">
<path d="M10.2871 2.46875C11.3162 1.75381 12.6818 1.75381 13.7109 2.46875L20.6719 7.30469C21.5417 7.90901 22.0281 8.927 21.9521 9.9834L21.2676 19.4951C21.1544 21.0641 19.8485 22.2793 18.2754 22.2793H17.0215C15.9169 22.2793 15.0215 21.3839 15.0215 20.2793V16.2793C15.0215 15.1747 14.1261 14.2793 13.0215 14.2793H10.9766C9.87199 14.2793 8.97656 15.1747 8.97656 16.2793V20.2793C8.97656 21.3839 8.08113 22.2793 6.97656 22.2793H5.72266C4.14952 22.2793 2.84363 21.0641 2.73047 19.4951L2.0459 9.9834C1.96993 8.92704 2.45643 7.90902 3.32617 7.30469L10.2871 2.46875Z" fill="#ADAFBB"/>
</svg>
