<svg width="60" height="60" viewBox="0 0 60 60" fill="none" xmlns="http://www.w3.org/2000/svg">
<path d="M2.1226 46.4159C5.71673 31.6101 20.6376 22.5224 35.4491 26.1179C49.5069 29.5306 58.4119 43.1416 56.2089 57.1768L1.57483 56.5287C1.14091 53.2451 1.29442 49.8276 2.1226 46.4159Z" fill="#232332"/>
<ellipse cx="33.6889" cy="17.7" rx="14.2423" ry="12.2274" transform="rotate(-175.531 33.6889 17.7)" fill="#232332"/>
<path d="M54.4545 15.964L49.4179 0.615479L45.2208 16.7314C45.2208 16.7314 45.268 20.3449 49.4179 20C53.5679 19.6551 54.4545 15.964 54.4545 15.964Z" fill="#CACCD8"/>
<path d="M27.5842 13.9175L31.4717 13.0648C32.1008 12.9267 32.6944 13.4108 32.6859 14.0549L32.6806 14.4499C32.6742 14.9257 32.3335 15.3311 31.8659 15.4193L28.0151 16.1451C27.4455 16.2525 26.9042 15.8546 26.8367 15.2789L26.8052 15.0108C26.7454 14.5004 27.0822 14.0277 27.5842 13.9175Z" fill="#8989A6"/>
<path d="M40.1531 16.2684L36.2656 15.4156C35.6365 15.2776 35.0429 15.7617 35.0515 16.4057L35.0567 16.8007C35.0631 17.2765 35.4038 17.682 35.8714 17.7701L39.7222 18.4959C40.2918 18.6033 40.8331 18.2054 40.9006 17.6297L40.9321 17.3616C40.9919 16.8512 40.6551 16.3785 40.1531 16.2684Z" fill="#8989A6"/>
</svg>
