<svg width="90" height="28" viewBox="0 0 90 28" fill="none" xmlns="http://www.w3.org/2000/svg">
<g clip-path="url(#clip0_4310_66229)">
<path d="M82.9875 27.2888H83.0859L83.1186 27.198L89.4994 9.4634L89.5644 9.28271H89.3684H86.0571H85.9554L85.9248 9.3776L83.0937 18.1554C82.9297 18.6641 82.1918 18.6605 82.033 18.1503L79.3016 9.37889L79.2716 9.28271H79.1688H75.8576H75.6694L75.7249 9.45843L79.1934 20.4357C79.5427 21.541 80.5492 22.3144 81.7156 22.3974L79.6215 27.0989L79.537 27.2888H79.7489H82.9875Z" fill="#232332" stroke="#232332" stroke-width="0.308483"/>
<path d="M74.2786 9.41831V9.28263H74.1398H71.6001V4.69378V4.55811H71.4612H68.2709H68.1321V4.69378V9.28263H65.6122H65.4734V9.41831V12.253V12.3887H65.6122H68.1321V22.2297V22.3653H68.2709H71.4612H71.6001V22.2297V12.3887H74.1398H74.2786V12.253V9.41831Z" fill="#232332" stroke="#232332" stroke-width="0.308483"/>
<path d="M59.8887 9.28254H59.7498V9.41822V22.2296V22.3652H59.8887H63.079H63.2178V22.2296V9.41822V9.28254H63.079H59.8887ZM59.5081 5.91024V6.01263C59.5081 7.07909 60.3927 7.94363 61.4838 7.94363C62.575 7.94363 63.4596 7.07909 63.4596 6.01263V5.91024C63.4596 4.84379 62.575 3.97925 61.4838 3.97925C60.3927 3.97925 59.5081 4.84379 59.5081 5.91024Z" fill="#232332" stroke="#232332" stroke-width="0.308483"/>
<path d="M41.0148 22.3653H41.1537V22.2296V15.0641C41.1537 14.1615 41.367 13.4322 41.7594 12.9321C42.1482 12.4365 42.7224 12.1524 43.4802 12.1524C44.2991 12.1524 44.839 12.4425 45.1811 12.9346C45.5298 13.4361 45.6858 14.1656 45.6858 15.0641V22.2296V22.3653H45.8246H48.9425H49.0813V22.2296V15.0641C49.0813 14.1592 49.2776 13.4296 49.6526 12.9297C50.0232 12.4358 50.5782 12.1524 51.3353 12.1524C52.1547 12.1524 52.7141 12.4431 53.0743 12.9371C53.4401 13.4389 53.6134 14.168 53.6134 15.0641V22.2296V22.3653H53.7523H56.9426H57.0814V22.2296V14.8043C57.0814 12.8753 56.4925 11.4334 55.5472 10.4729C54.6022 9.51262 53.3134 9.04639 51.9395 9.04639C50.2264 9.04639 48.7155 9.78394 47.7401 10.9827C47.2971 10.3717 46.7907 9.89972 46.1977 9.57457C45.5547 9.22205 44.8176 9.04639 43.9635 9.04639C42.8189 9.04639 41.7808 9.68051 41.1537 10.3273V9.41829V9.28262H41.0148H37.8245H37.6857V9.41829V22.2296V22.3653H37.8245H41.0148Z" fill="#232332" stroke="#232332" stroke-width="0.308483"/>
<path d="M31.5782 9.28253H31.4393V9.4182V22.2296V22.3652H31.5782H34.7686H34.9074V22.2296V9.4182V9.28253H34.7686H31.5782ZM31.1976 5.91024V6.01261C31.1976 7.07906 32.0822 7.9436 33.1734 7.9436C34.2646 7.9436 35.1491 7.07906 35.1491 6.01261V5.91024C35.1491 4.84379 34.2646 3.97925 33.1734 3.97925C32.0822 3.97925 31.1976 4.84379 31.1976 5.91024Z" fill="#232332" stroke="#232332" stroke-width="0.308483"/>
<path d="M24.5715 22.3654H24.7103V22.2298V16.1981C24.7103 15.174 24.925 14.3029 25.5691 13.6846C26.2143 13.0651 27.3188 12.6723 29.1638 12.6723H29.3025V12.5366V9.22943V9.09375H29.1638C26.818 9.09375 25.3565 10.018 24.6619 10.9933V9.41841V9.28273H24.5232H21.381H21.2422V9.41841V22.2298V22.3654H21.381H24.5715Z" fill="#232332" stroke="#232332" stroke-width="0.308483"/>
<path d="M18.4704 9.13657H18.6757L18.5993 8.95036C17.1532 5.42894 14.0585 3.29028 10.2044 3.29028C7.68155 3.29028 5.33133 4.17629 3.61134 5.83333C1.89046 7.49124 0.808594 9.91312 0.808594 12.9695C0.808594 16.038 1.90278 18.4599 3.62974 20.1148C5.35567 21.7686 7.70574 22.6487 10.2044 22.6487C12.8362 22.6487 15.1211 21.7388 16.748 20.1098C18.3748 18.4806 19.3343 16.1418 19.3343 13.3002V12.1427V12.0071H19.1955H10.0352H9.89635V12.1427V14.9774V15.1131H10.0352H15.6965C15.4503 16.475 14.8193 17.5532 13.9041 18.2985C12.9539 19.0724 11.6876 19.4954 10.2044 19.4954C6.8911 19.4954 4.46998 16.8348 4.46998 12.9695C4.46998 9.10423 6.8911 6.44359 10.2044 6.44359C12.1886 6.44359 14.0216 7.48298 14.8172 9.06087L14.8553 9.13657H14.9417H18.4704Z" fill="#232332" stroke="#232332" stroke-width="0.308483"/>
</g>
<defs>
<clipPath id="clip0_4310_66229">
<rect width="90" height="25" fill="white" transform="translate(0 2.5)"/>
</clipPath>
</defs>
</svg>
