<svg width="18" height="18" viewBox="0 0 18 18" fill="none" xmlns="http://www.w3.org/2000/svg">
<path d="M0.562514 10.4397V5.36402C0.562514 4.7557 0.559885 4.36829 0.626674 4.03512L0.689955 3.77584C1.05553 2.49606 2.16141 1.53763 3.51915 1.29645L3.78986 1.26129C4.07691 1.23628 4.42329 1.23756 4.91134 1.23756C5.1973 1.23756 5.37431 1.23732 5.54679 1.2525L5.81398 1.28502C6.4339 1.38416 7.01978 1.63565 7.51115 2.01891L7.71769 2.19557C7.79137 2.26239 7.87348 2.33971 7.97433 2.43463L8.39533 2.83014L8.81281 3.22037C9.16897 3.54806 9.36385 3.70434 9.58097 3.81803L9.70929 3.88131C9.79599 3.92073 9.88527 3.95513 9.97648 3.98502L10.1145 4.02633L10.2208 4.06676C10.4549 4.18379 10.5822 4.4528 10.5117 4.71539C10.4413 4.97801 10.1964 5.14698 9.93517 5.13111L9.82267 5.11266L9.62579 5.05465C9.49552 5.01195 9.36795 4.96184 9.24347 4.90524L9.0589 4.81471C8.71564 4.63494 8.4192 4.38808 8.03849 4.03688L7.62453 3.64928L7.20353 3.25377C7.09507 3.15169 7.02024 3.08097 6.96183 3.02789L6.81945 2.9066C6.48163 2.64304 6.07382 2.46592 5.63732 2.39596L5.44835 2.37311C5.33655 2.36327 5.217 2.36256 4.91134 2.36256C4.3868 2.36256 4.10037 2.3639 3.89708 2.38102L3.71603 2.40387C2.75282 2.57491 2.01199 3.24404 1.77101 4.0861L1.7297 4.2566C1.69038 4.45273 1.68751 4.7015 1.68751 5.36402V10.4397C1.68751 11.814 1.68888 12.785 1.79386 13.5203C1.89603 14.2355 2.08626 14.6453 2.40646 14.9467C2.7316 15.2528 3.18101 15.4382 3.95773 15.5365C4.74743 15.6364 5.78744 15.6376 7.24484 15.6376H10.3052C11.7626 15.6376 12.8026 15.6364 13.5923 15.5365C14.369 15.4382 14.8184 15.2528 15.1436 14.9467C15.4638 14.6453 15.654 14.2355 15.7562 13.5203C15.8611 12.785 15.8625 11.814 15.8625 10.4397V8.85416C15.8627 8.54368 16.1145 8.29166 16.425 8.29166C16.7355 8.29166 16.9873 8.54368 16.9875 8.85416V10.4397C16.9875 11.7803 16.9887 12.8462 16.8697 13.6794C16.7479 14.5324 16.4901 15.2239 15.9144 15.7659C15.3433 16.3034 14.6226 16.5401 13.7329 16.6527C12.8562 16.7636 11.7324 16.7626 10.3052 16.7626H7.24484C5.8176 16.7626 4.69384 16.7636 3.8171 16.6527C2.92742 16.5401 2.20674 16.3034 1.63566 15.7659C1.05988 15.2239 0.802141 14.5324 0.680287 13.6794C0.561311 12.8462 0.562514 11.7803 0.562514 10.4397Z" fill="#35363F"/>
<path d="M14.8981 1.73601C15.4668 1.2203 16.3041 1.25714 16.8344 1.84636L17.4637 2.54558L17.563 2.66765C17.9963 3.25741 17.9963 4.10714 17.563 4.69695L17.4637 4.81902L12.1586 10.7135L12.0505 10.8346L11.902 10.8766L9.6625 11.5202C9.11479 11.6774 8.6157 11.1229 8.75723 10.5143L9.33643 8.02605L9.37422 7.86101L9.4832 7.74089L14.7883 1.84636L14.8981 1.73601ZM10.3867 8.50359L10.0088 10.1286L11.4713 9.70867L15.0309 5.75359L13.9463 4.54851L10.3867 8.50359ZM16.039 2.73015C15.9285 2.60745 15.7597 2.59228 15.6347 2.68425L15.5837 2.73015L14.7417 3.66472L15.8263 4.8698L16.6683 3.93523L16.7096 3.87859C16.7805 3.75946 16.7806 3.60511 16.7096 3.48601L16.6683 3.42937L16.039 2.73015Z" fill="#35363F"/>
</svg>
