<svg width="61" height="60" viewBox="0 0 61 60" fill="none" xmlns="http://www.w3.org/2000/svg">
<path d="M37.9168 28.4959C37.0103 28.0537 36.0552 27.9881 35.189 28.2089L40.5192 36.4393C40.8489 36.4167 41.1922 36.4406 41.5367 36.524C43.1318 36.9104 44.1513 38.3556 43.8135 39.7514C43.4753 41.1472 41.9074 41.9654 40.3121 41.579C38.7171 41.1923 37.6981 39.7476 38.0362 38.3518C38.097 38.1013 38.1992 37.8706 38.3322 37.6609L33.075 29.5436C32.4893 30.2485 32.1365 31.1663 32.165 32.2009L32.5853 47.41L43.2589 53.6713L41.0605 55.496L43.0791 57.4621C44.2029 58.5564 45.98 58.6 47.1564 57.5625L56.0052 49.7585C57.1433 48.7547 57.3526 47.0595 56.4927 45.8091L55.1255 43.821L52.8717 45.6916L52.0807 35.4057L37.9168 28.4959Z" fill="#232332"/>
<path d="M30.3917 4.17662C30.5985 5.54143 29.657 6.79572 28.2953 7.0217C28.0167 7.06793 27.7387 7.11687 27.4614 7.16992C26.9058 7.27625 26.1022 7.4428 25.1313 7.67969C23.1805 8.1557 20.5955 8.90647 18.0053 10.0068C15.3967 11.1151 12.9058 12.5274 11.0454 14.2705C9.32384 15.8835 8.22591 17.6932 7.94772 19.7773L7.90378 20.1982C7.73323 22.3507 8.40168 23.1705 9.10495 23.626C10.0669 24.2489 11.7329 24.5781 14.0893 24.4766C18.7334 24.2763 24.2602 22.5207 27.1762 21.6133L29.5825 20.8447C35.4402 18.9616 42.937 16.6571 50.6059 18.5742C53.3254 19.2541 55.8028 21.2443 57.063 23.8486C58.3895 26.5903 58.3416 29.99 55.9731 33.0352C55.1258 34.1247 53.5554 34.3208 52.4658 33.4736C51.3758 32.6259 51.179 31.0548 52.0268 29.9648C53.1581 28.5101 53.1103 27.1596 52.562 26.0264C51.9472 24.7558 50.6744 23.746 49.394 23.4258C43.1947 21.876 37.1053 23.7077 31.188 25.5879L28.6626 26.3867C25.9085 27.2438 19.7253 29.2379 14.3051 29.4717C11.6294 29.587 8.67406 29.3041 6.38718 27.8232C3.84182 26.175 2.63427 23.3996 2.9194 19.8027L2.95261 19.4463C3.34405 15.7842 5.22923 12.8682 7.62644 10.6221C10.0769 8.32611 13.1526 6.6363 16.0503 5.40527C18.9663 4.16645 21.8273 3.33917 23.9458 2.82227C25.0091 2.56281 25.8958 2.37958 26.5219 2.25977C26.8758 2.19206 27.2133 2.13282 27.5445 2.07823C28.9072 1.85367 30.1848 2.81116 30.3917 4.17662Z" fill="#CACCD8"/>
<path d="M21.672 43.5742C22.7115 43.1938 23.5997 42.8985 24.2247 42.6992C24.4719 42.6204 24.744 42.5001 25.0084 42.4371C25.1258 42.4092 25.2449 42.3876 25.361 42.3545C26.5926 42.0023 27.3056 40.7184 26.9536 39.4867L26.9039 39.3131C26.5245 37.9854 25.1374 37.2053 23.8131 37.5964C23.4427 37.7058 23.0732 37.8182 22.7052 37.9355C22.0256 38.1523 21.0697 38.4703 19.9532 38.8789C17.736 39.6903 14.8151 40.8844 12.1495 42.3838C9.58481 43.8265 6.83103 45.7809 5.44152 48.2754C4.70256 49.6022 4.30335 51.1669 4.62609 52.8613C4.94331 54.5267 5.89887 56.0098 7.28332 57.3174L7.45129 57.4668C8.303 58.1858 9.37936 58.5009 10.2159 58.6689C11.1917 58.8649 12.3022 58.9455 13.4298 58.9619C15.6933 58.9948 18.3577 58.7721 20.8478 58.4766C23.3545 58.1791 25.7618 57.7985 27.5372 57.4932C28.4266 57.3402 29.162 57.2051 29.6759 57.1084L30.4888 56.9468C31.8437 56.6776 32.7227 55.3596 32.4508 54.0053C32.1792 52.6529 30.8642 51.7836 29.5106 52.0492C29.2576 52.0988 29.0045 52.1476 28.7511 52.1953C28.2591 52.2879 27.5496 52.4175 26.6896 52.5654C24.9662 52.8618 22.6499 53.2279 20.2579 53.5117C17.8492 53.7975 15.439 53.99 13.5021 53.9619C12.5293 53.9478 11.7568 53.8784 11.2003 53.7666C10.8267 53.6915 10.4978 53.4814 10.2485 53.1932C9.75597 52.624 9.58994 52.1974 9.5382 51.9258C9.47815 51.6105 9.51749 51.2337 9.80969 50.709C10.4827 49.5006 12.1656 48.1109 14.6007 46.7412C16.935 45.4281 19.5767 44.341 21.672 43.5742Z" fill="#CACCD8"/>
</svg>
