<svg width="20" height="20" viewBox="0 0 20 20" fill="none" xmlns="http://www.w3.org/2000/svg">
<path d="M4.2041 7.60645C4.47904 7.42494 4.85269 7.45523 5.09473 7.69727L5.18555 7.80762C5.3413 8.04333 5.34125 8.35215 5.18555 8.58789L5.09473 8.69824L4.49414 9.2998C2.78022 11.0138 2.7802 13.7919 4.49414 15.5059L4.65723 15.6621C6.38007 17.2187 9.0398 17.1662 10.7002 15.5059L11.3008 14.9053L11.4121 14.8145C11.687 14.6329 12.0607 14.6634 12.3027 14.9053L12.3936 15.0166C12.5492 15.2523 12.5492 15.5602 12.3936 15.7959L12.3027 15.9072L11.7021 16.5078C9.50588 18.7041 5.98795 18.7727 3.70898 16.7139L3.49219 16.5078C1.22501 14.2406 1.22502 10.565 3.49219 8.29785L4.09277 7.69727L4.2041 7.60645ZM11.4121 7.60645C11.6871 7.42472 12.0606 7.45514 12.3027 7.69727L12.3936 7.80762C12.5495 8.04343 12.5494 8.35206 12.3936 8.58789L12.3027 8.69824L8.69824 12.3027C8.45608 12.5448 8.08255 12.5753 7.80762 12.3936L7.69727 12.3027C7.42064 12.0261 7.42064 11.5774 7.69727 11.3008L11.3008 7.69727L11.4121 7.60645ZM8.51465 3.28613C10.7936 1.22727 14.3115 1.29592 16.5078 3.49219L16.7139 3.70898C18.7063 5.91436 18.7063 9.27997 16.7139 11.4854L16.5078 11.7021L15.9072 12.3027C15.6652 12.5448 15.2915 12.5751 15.0166 12.3936L14.9053 12.3027C14.6289 12.0261 14.6287 11.5773 14.9053 11.3008L15.5059 10.7002L15.6621 10.5371C17.1685 8.86983 17.1685 6.32451 15.6621 4.65723L15.5059 4.49414C13.8455 2.83375 11.1857 2.78126 9.46289 4.33789L9.2998 4.49414L8.69824 5.09473C8.45613 5.33651 8.08245 5.36714 7.80762 5.18555L7.69727 5.09473C7.42064 4.8181 7.42064 4.36939 7.69727 4.09277L8.29785 3.49219L8.51465 3.28613Z" fill="#35363F" stroke="#35363F" stroke-width="0.166667"/>
</svg>
