<svg width="16" height="16" viewBox="0 0 16 16" fill="none" xmlns="http://www.w3.org/2000/svg">
<path d="M9.66699 1C12.4283 1.00017 14.667 3.23868 14.667 6V10C14.667 12.7613 12.4283 14.9998 9.66699 15H6.33301C3.57173 14.9998 1.33301 12.7613 1.33301 10V6C1.33301 3.23868 3.57173 1.00018 6.33301 1H9.66699ZM5.90039 10C5.58752 10 5.33315 10.2536 5.33301 10.5664C5.33301 10.8794 5.58743 11.1338 5.90039 11.1338H7.43359C7.74644 11.1336 8 10.8793 8 10.5664C7.99986 10.2537 7.74635 10.0001 7.43359 10H5.90039ZM5.90039 7.33301C5.58743 7.33301 5.33301 7.58743 5.33301 7.90039C5.33322 8.21317 5.58756 8.4668 5.90039 8.4668H10.0996C10.4124 8.4668 10.6668 8.21317 10.667 7.90039C10.667 7.58743 10.4126 7.33301 10.0996 7.33301H5.90039ZM5.90039 4.66699C5.58743 4.66699 5.33301 4.92044 5.33301 5.2334C5.33304 5.54633 5.58745 5.7998 5.90039 5.7998H10.0996C10.4125 5.7998 10.667 5.54633 10.667 5.2334C10.667 4.92044 10.4126 4.66699 10.0996 4.66699H5.90039Z" fill="#ADAFBB"/>
</svg>
