<svg width="16" height="16" viewBox="0 0 16 16" fill="none" xmlns="http://www.w3.org/2000/svg">
<g clip-path="url(#clip0_4166_73140)">
<path d="M4.33342 3.83333C5.51488 3.83333 6.47273 4.80338 6.47274 6C6.47274 7.19662 5.51488 8.16667 4.33342 8.16667C3.15199 8.16662 2.19409 7.1966 2.19409 6C2.1941 4.80341 3.15199 3.83338 4.33342 3.83333Z" fill="#ADAFBB"/>
<path fill-rule="evenodd" clip-rule="evenodd" d="M10.6002 2C9.16421 2 8.00015 3.16406 8.00015 4.6C8.00015 6.03594 9.16421 7.2 10.6002 7.2C12.0361 7.2 13.2002 6.03594 13.2002 4.6C13.2002 3.16406 12.0361 2 10.6002 2Z" fill="#ADAFBB"/>
<path d="M4.39246 9.88905C4.49784 9.88905 4.6025 9.89191 4.70628 9.89755C5.23498 9.92627 5.41092 10.6159 5.07516 11.0607C4.52106 11.7947 4.05256 12.6515 3.91206 13.5263C3.84351 13.9531 3.53551 14.3332 3.13682 14.3332H0.97204C0.940231 14.3333 0.896755 14.3336 0.855837 14.3297C0.414685 14.2872 0.0646904 13.902 0.0260077 13.4164C0.022427 13.3714 0.0226832 13.323 0.0227251 13.288V13.278C0.0227251 12.2533 0.588773 11.3925 1.37842 10.813C2.17157 10.231 3.2387 9.88906 4.39246 9.88905Z" fill="#ADAFBB"/>
<path fill-rule="evenodd" clip-rule="evenodd" d="M10.7118 9C9.30949 9 8.0126 9.41061 7.0486 10.109C6.08884 10.8044 5.40086 11.8372 5.40086 13.067L5.40085 13.0794C5.4008 13.1215 5.40073 13.1788 5.40508 13.2329C5.452 13.8157 5.87717 14.2777 6.41343 14.3287C6.46316 14.3335 6.51593 14.3334 6.55459 14.3333H14.8689C14.9076 14.3334 14.9604 14.3335 15.0101 14.3287C15.5464 14.2777 15.9715 13.8157 16.0185 13.2329C16.0228 13.1788 16.0227 13.1215 16.0227 13.0795L16.0227 13.067C16.0227 11.8372 15.3347 10.8044 14.3749 10.109C13.4109 9.41061 12.1141 9 10.7118 9Z" fill="#ADAFBB"/>
</g>
<defs>
<clipPath id="clip0_4166_73140">
<rect width="16" height="16" fill="white"/>
</clipPath>
</defs>
</svg>
