<svg width="16" height="16" viewBox="0 0 16 16" fill="none" xmlns="http://www.w3.org/2000/svg">
<path d="M6.28778 2.04197C7.31681 1.32711 8.68157 1.3272 9.71064 2.04197L13.3132 4.5449C14.183 5.14921 14.6704 6.16717 14.5944 7.22361L14.2458 12.0683C14.1328 13.6374 12.8267 14.8523 11.2536 14.8525C10.5692 14.8525 10.0143 14.2977 10.0143 13.6133V11.5195C10.0143 10.4149 9.10378 9.51951 7.99921 9.51951C6.89464 9.51951 5.98407 10.4149 5.98407 11.5195V13.6142C5.98407 14.2981 5.42968 14.8525 4.74579 14.8525C3.17255 14.8525 1.86662 13.6375 1.7536 12.0683L1.40497 7.22361C1.32899 6.16721 1.81545 5.14923 2.68524 4.5449L6.28778 2.04197Z" fill="#ADAFBB"/>
</svg>
