<svg width="16" height="16" viewBox="0 0 16 16" fill="none" xmlns="http://www.w3.org/2000/svg">
<path d="M8.83447 1.94677C9.3723 1.3945 10.2232 1.27037 10.9009 1.66161L11.9409 2.2622H11.9419L12.0562 2.33544C12.5747 2.69289 12.8476 3.30381 12.7817 3.91649L12.7622 4.04735C12.7572 4.0742 12.7512 4.10119 12.7437 4.12743L12.7007 4.27587C12.6941 4.29859 12.6867 4.32116 12.6782 4.34325L12.3286 5.25341C12.4178 5.39226 12.5014 5.53481 12.5776 5.68212L13.5405 5.83641L13.6177 5.85302L13.7661 5.8911L13.8374 5.91259L13.9604 5.96141C14.5636 6.22818 14.9722 6.83013 14.9722 7.5161V8.71727L14.9692 8.79247L14.9556 8.94579C14.9532 8.97179 14.9495 8.99823 14.9448 9.02391C14.8169 9.72157 14.2624 10.2798 13.5405 10.395H13.5396L12.5786 10.5464C12.502 10.6947 12.4183 10.8384 12.3286 10.978L12.6782 11.8891L12.7007 11.9565L12.7437 12.105L12.7622 12.1841L12.7817 12.3159C12.8522 12.9723 12.5341 13.6265 11.9419 13.9692L11.9409 13.9702L10.9009 14.5708C10.8787 14.5836 10.8557 14.5952 10.8325 14.6059L10.6929 14.6704C10.67 14.6809 10.6462 14.6902 10.6226 14.6987C9.99676 14.9224 9.28733 14.7619 8.8208 14.272L8.73096 14.1694L8.1167 13.4106L7.87061 13.4204C7.78654 13.4204 7.70355 13.4148 7.62158 13.4106L7.0083 14.1684L6.9624 14.2202L6.85596 14.3315C6.83677 14.3516 6.81647 14.3711 6.79541 14.3891C6.28872 14.8244 5.56836 14.9231 4.95947 14.6333L4.83936 14.5708L3.79932 13.9702C3.77709 13.9574 3.75486 13.943 3.73389 13.9282L3.60791 13.8393C3.58714 13.8247 3.56674 13.8089 3.54736 13.7925C3.00688 13.333 2.79891 12.5721 3.06104 11.8882L3.40967 10.977C3.32038 10.8381 3.237 10.695 3.16064 10.5474L2.19971 10.395C1.4268 10.272 0.843993 9.64009 0.773926 8.87255L0.76709 8.71727V7.5161L0.771973 7.37938C0.825762 6.70578 1.27432 6.13346 1.90186 5.91259L1.97412 5.89013L2.12354 5.85204L2.19971 5.83641L3.16162 5.68212C3.23785 5.53495 3.3206 5.39193 3.40967 5.25341L3.06104 4.34325C2.76242 3.56362 3.07372 2.68073 3.79736 2.2622H3.79834L4.83838 1.66161L4.97607 1.59032C5.67556 1.26719 6.51505 1.45509 7.0083 2.06395L7.62158 2.82079C7.70373 2.81676 7.78677 2.812 7.87061 2.812L8.11572 2.82079L8.73096 2.06298L8.83447 1.94677ZM7.86963 6.11669C6.76507 6.1167 5.86963 7.01213 5.86963 8.11669C5.86988 9.22104 6.76522 10.1167 7.86963 10.1167C8.97405 10.1167 9.86938 9.22105 9.86963 8.11669C9.86963 7.01212 8.9742 6.11669 7.86963 6.11669Z" fill="#ADAFBB"/>
</svg>
