<svg width="16" height="16" viewBox="0 0 16 16" fill="none" xmlns="http://www.w3.org/2000/svg">
<path d="M1 13V6.7258C1 6.61104 1.01975 6.49714 1.05839 6.38909L2.39072 2.66329C2.53297 2.26549 2.90986 2 3.33233 2H12.6677C13.0901 2 13.467 2.26549 13.6093 2.66329L14.9416 6.38909C14.9802 6.49714 15 6.61104 15 6.7258V13C15 13.5523 14.5523 14 14 14H2C1.44772 14 1 13.5523 1 13Z" fill="#ADAFBB"/>
<path d="M1 6.66663H4.43381C4.78507 6.66663 5.11058 6.85092 5.2913 7.15213L5.7087 7.84779C5.88942 8.14899 6.21493 8.33329 6.56619 8.33329H9.43381C9.78507 8.33329 10.1106 8.14899 10.2913 7.84779L10.7087 7.15213C10.8894 6.85093 11.2149 6.66663 11.5662 6.66663H15" stroke="white" stroke-width="1.2"/>
</svg>
