<svg width="20" height="20" viewBox="0 0 20 20" fill="none" xmlns="http://www.w3.org/2000/svg">
<path d="M10.7686 2.36035C12.0133 2.36035 13.1291 3.12974 13.5723 4.29297L13.8252 4.95801C13.8665 5.0664 13.9601 5.14671 14.0752 5.16113L16.5381 5.46973C18.0392 5.6575 19.166 6.93443 19.166 8.44727V14.6387C19.166 16.2954 17.8227 17.6385 16.166 17.6387H3.83203C2.17533 17.6385 0.832031 16.2954 0.832031 14.6387V8.44727C0.832082 6.93443 1.95883 5.65749 3.45996 5.46973L5.91992 5.16211C6.03563 5.14753 6.13036 5.06702 6.17188 4.95801L6.42578 4.29297C6.86895 3.12974 7.9847 2.36035 9.22949 2.36035H10.7686ZM9.22949 4.06055C8.6905 4.06055 8.20684 4.39403 8.01465 4.89844L8.01367 4.89941L7.75977 5.5625C7.51574 6.20325 6.92785 6.74987 6.13086 6.84961L3.6709 7.15625C3.02073 7.23759 2.53228 7.79144 2.53223 8.44727V14.6387C2.53223 15.3563 3.11397 15.9383 3.83203 15.9385H16.166C16.8841 15.9383 17.4658 15.3563 17.4658 14.6387V8.44727C17.4658 7.79144 16.9773 7.23759 16.3271 7.15625L13.8643 6.84766C13.0622 6.74721 12.4778 6.19728 12.2363 5.56348V5.5625L11.9834 4.89844L11.9443 4.80566C11.7309 4.35338 11.2739 4.06055 10.7686 4.06055H9.22949ZM10.1836 7.33105C12.0864 7.42295 13.5995 8.9245 13.5996 10.7637C13.5996 12.6621 11.9877 14.201 9.99902 14.2012L9.81348 14.1973C7.91079 14.1051 6.39746 12.6028 6.39746 10.7637C6.39761 8.86539 8.01038 7.32634 9.99902 7.32617L10.1836 7.33105ZM9.99902 9.02637C8.87394 9.02653 8.09781 9.87787 8.09766 10.7637C8.09766 11.6496 8.87383 12.5008 9.99902 12.501C11.1242 12.5008 11.8994 11.6496 11.8994 10.7637C11.8993 9.87788 11.1241 9.02656 9.99902 9.02637Z" fill="#35363F"/>
</svg>
