<svg width="18" height="18" viewBox="0 0 18 18" fill="none" xmlns="http://www.w3.org/2000/svg">
<path d="M11.1602 14.9409C11.4402 15.2209 11.8831 15.2385 12.1836 14.9937L12.2412 14.9409L16.7412 10.4409L16.7939 10.3823C17.0226 10.1019 17.0226 9.69788 16.7939 9.41748L16.7412 9.35986L12.2412 4.85986C11.9425 4.56111 11.4589 4.56111 11.1602 4.85986C10.8618 5.15864 10.8615 5.64229 11.1602 5.94092L14.3047 9.08447H7.9209C5.85812 9.08447 4.18555 7.41191 4.18555 5.34912V4.49951C4.1853 4.07726 3.8432 3.73492 3.4209 3.73486C2.99855 3.73486 2.6565 4.07722 2.65625 4.49951V5.34912C2.65625 8.2569 5.01312 10.6138 7.9209 10.6138H14.4062L11.1602 13.8599L11.1074 13.9175C10.8626 14.2179 10.8802 14.6609 11.1602 14.9409Z" fill="#23252B"/>
</svg>
