<svg width="18" height="18" viewBox="0 0 18 18" fill="none" xmlns="http://www.w3.org/2000/svg">
<path fill-rule="evenodd" clip-rule="evenodd" d="M8.22794 4.91687C7.12885 3.39083 5.04116 3.15966 3.66262 4.39011C2.25504 5.64648 2.16842 7.89931 3.48048 9.26985L8.99917 14.8338L14.5178 9.26986C15.8299 7.89933 15.7433 5.64649 14.3357 4.39012C12.9572 3.15966 10.8695 3.39083 9.7704 4.91687L9.54689 5.2272C9.42003 5.40332 9.21622 5.5077 8.99917 5.5077C8.78212 5.5077 8.57831 5.40332 8.45146 5.2272L8.22794 4.91687ZM8.99917 3.7261C10.6248 1.92527 13.3786 1.72626 15.2347 3.38295C17.2173 5.15257 17.3307 8.28983 15.488 10.2087L15.4803 10.2165L9.87666 15.8661C9.39387 16.3637 8.60447 16.3637 8.12168 15.8661L2.51798 10.2165L2.51037 10.2087C0.667639 8.28983 0.781052 5.15257 2.76367 3.38295C4.61975 1.72626 7.37356 1.92527 8.99917 3.7261Z" fill="#23252B"/>
</svg>
