<svg width="17" height="17" viewBox="0 0 17 17" fill="none" xmlns="http://www.w3.org/2000/svg">
<rect x="0.199219" y="0.900024" width="16" height="16" rx="6" fill="black" fill-opacity="0.6"/>
<path d="M10.1405 5.90083C10.435 5.6607 10.8699 5.67825 11.1444 5.95259C11.4188 6.22716 11.4363 6.662 11.1962 6.9565L11.1444 7.01314L9.25966 8.89595L11.1444 10.7797L11.1952 10.8374C11.4355 11.1318 11.4188 11.5666 11.1444 11.8413C10.8699 12.1157 10.4351 12.133 10.1405 11.893L10.0839 11.8413L8.19813 9.9565L6.31337 11.8413L6.25673 11.893C5.96215 12.133 5.52729 12.1157 5.25282 11.8413C4.97853 11.5666 4.96177 11.1318 5.20204 10.8374L5.25282 10.7797L7.13661 8.89595L5.25282 7.01314L5.20106 6.9565C4.96111 6.662 4.97846 6.22712 5.25282 5.95259C5.52731 5.67817 5.96216 5.6608 6.25673 5.90083L6.31337 5.95259L8.19813 7.8354L10.0839 5.95259L10.1405 5.90083Z" fill="white"/>
</svg>
