<svg width="60" height="60" viewBox="0 0 60 60" fill="none" xmlns="http://www.w3.org/2000/svg">
<path d="M5.38675 43.7415L3 23.5L28.037 35L55 23.5V42.428C55 45.7766 52.9145 48.7709 49.7736 49.9318L30.6883 56.9861C28.0769 57.9514 25.1813 57.7842 22.6982 56.525L9.71321 49.9395C7.32442 48.728 5.7004 46.4015 5.38675 43.7415Z" fill="#232332"/>
<path d="M28 12L4 20.5L28 32L54.5 21.5L28 12Z" fill="#CACCD8"/>
<path d="M29.5447 22.4652L29.7355 19.1165L25.2708 18.8622L25.9824 23.1215L29.5447 22.4652Z" fill="#8989A6"/>
<path d="M29.8314 16.0561L29.8314 3.55607L24.8317 2.55612L25.8317 16.0561L29.8314 16.0561Z" fill="#8989A6"/>
</svg>
