<svg width="60" height="81" viewBox="0 0 60 81" fill="none" xmlns="http://www.w3.org/2000/svg">
<path d="M28.8716 42.0497C29.2379 42.0172 29.6101 42 29.9872 42C30.1502 42 30.3121 42.0035 30.4732 42.0096L28.8716 42.0497Z" fill="#8989A6"/>
<path d="M29.9872 58C24.7032 58 20.3759 54.7309 20 50.5864L40 50.0855C39.9426 54.4644 35.4823 57.9999 29.9872 58Z" fill="#8989A6"/>
<path d="M32.2304 80.2942C31.4062 80.4283 30.5702 80.4904 29.725 80.472C29.3598 80.464 28.9967 80.44 28.6364 80.4033L32.2304 80.2942ZM31.0092 1.11783C33.1859 1.16546 35.0794 3.26606 36.2678 6.5035C45.0282 9.99971 51.6297 22.1497 52.8109 37.2169L54.6098 37.1888C55.8486 37.1688 56.8071 38.2685 56.6186 39.4929L55.9357 43.9244C55.785 44.9016 54.9426 45.6222 53.9539 45.6198L6.14324 45.5033C5.02361 45.5005 4.12393 44.5786 4.14834 43.4592L4.22555 39.9249C4.24903 38.8501 5.11865 37.9857 6.19356 37.9684L8.36673 37.9329C9.80209 22.7601 16.618 10.511 25.3407 6.71216C26.6664 3.27435 28.733 1.06829 31.0092 1.11783Z" fill="#232332"/>
</svg>
