<svg width="24" height="24" viewBox="0 0 24 24" fill="none" xmlns="http://www.w3.org/2000/svg">
<path d="M20.5954 7.81868C20.4732 7.90869 18.3169 9.06281 18.3169 11.6291C18.3169 14.5974 21.0607 15.6475 21.1429 15.6735C21.1302 15.7375 20.707 17.1116 19.6962 18.5118C18.795 19.7439 17.8537 20.974 16.4218 20.974C14.9899 20.974 14.6214 20.1839 12.9684 20.1839C11.3575 20.1839 10.7847 21 9.47493 21C8.16516 21 7.25127 19.8599 6.2005 18.4597C4.98338 16.8156 4 14.2613 4 11.8371C4 7.94869 6.66166 5.88649 9.2812 5.88649C10.6731 5.88649 11.8334 6.75458 12.7072 6.75458C13.539 6.75458 14.8362 5.83448 16.4197 5.83448C17.0198 5.83448 19.1761 5.88649 20.5954 7.81868ZM15.6679 4.18832C16.3228 3.45024 16.7861 2.42614 16.7861 1.40204C16.7861 1.26003 16.7734 1.11601 16.7461 1C15.6806 1.038 14.4129 1.67407 13.6485 2.51615C13.0484 3.16422 12.4883 4.18832 12.4883 5.22642C12.4883 5.38244 12.5156 5.53845 12.5283 5.58846C12.5956 5.60046 12.7051 5.61446 12.8146 5.61446C13.7706 5.61446 14.973 5.0064 15.6679 4.18832Z" fill="#232332"/>
</svg>
