<svg width="60" height="60" viewBox="0 0 60 60" fill="none" xmlns="http://www.w3.org/2000/svg">
<path d="M3.63965 24.1248C5.18795 12.3649 18.1766 4.37605 32.6504 6.28101C47.1242 8.18613 58.8764 20.0347 57.3291 31.7947C55.7812 43.5549 41.519 50.7731 27.0449 48.8679C25.9782 48.7275 24.9332 48.5353 23.9131 48.2986L14.1787 52.8054C12.4586 53.6016 10.6988 51.7816 11.5527 50.0896L14.4395 44.3718C7.01673 39.6648 2.59647 32.0501 3.63965 24.1248Z" fill="#232332"/>
<ellipse cx="30.7043" cy="28.2951" rx="2.81465" ry="2.41255" transform="rotate(131.808 30.7043 28.2951)" fill="#CACCD8"/>
<ellipse cx="42.2218" cy="27.9575" rx="3.07613" ry="2.63669" transform="rotate(141.948 42.2218 27.9575)" fill="#CACCD8"/>
<ellipse cx="19.2218" cy="27.9575" rx="3.07613" ry="2.63669" transform="rotate(141.948 19.2218 27.9575)" fill="#CACCD8"/>
</svg>
