<svg width="18" height="18" viewBox="0 0 18 18" fill="none" xmlns="http://www.w3.org/2000/svg">
<path d="M11.1592 3.05959C11.4392 2.77954 11.8821 2.76187 12.1826 3.00686L12.2402 3.05959L16.7402 7.55959L16.793 7.61721C17.0216 7.89761 17.0216 8.30262 16.793 8.58303L16.7402 8.64064L12.2402 13.1406C11.9415 13.4392 11.4579 13.4393 11.1592 13.1406C10.8606 12.8419 10.8607 12.3583 11.1592 12.0596L14.3037 8.91506H7.91992C5.85719 8.91506 4.18466 10.5877 4.18457 12.6504V13.5C4.18433 13.9223 3.84223 14.2646 3.41992 14.2647C2.99757 14.2647 2.65551 13.9223 2.65527 13.5V12.6504C2.65536 9.7427 5.01219 7.38576 7.91992 7.38576H14.4053L11.1592 4.14064L11.1064 4.08303C10.8615 3.78262 10.8793 3.33965 11.1592 3.05959Z" fill="white"/>
</svg>
