<svg width="24" height="24" viewBox="0 0 24 24" fill="none" xmlns="http://www.w3.org/2000/svg">
<path fill-rule="evenodd" clip-rule="evenodd" d="M22.0002 12.2272C22.0002 11.5181 21.9353 10.8363 21.8147 10.1818H12.2042V14.05H17.6959C17.4594 15.3 16.7404 16.3591 15.6597 17.0682V19.5773H18.9575C20.887 17.8364 22.0002 15.2727 22.0002 12.2272Z" fill="#4285F4"/>
<path fill-rule="evenodd" clip-rule="evenodd" d="M12.2038 22.0001C14.959 22.0001 17.2688 21.1046 18.9571 19.5773L15.6593 17.0682C14.7456 17.6682 13.5768 18.0228 12.2038 18.0228C9.54611 18.0228 7.29656 16.2637 6.49414 13.9H3.08502V16.491C4.76407 19.7592 8.21493 22.0001 12.2038 22.0001Z" fill="#34A853"/>
<path fill-rule="evenodd" clip-rule="evenodd" d="M6.49453 13.9C6.29045 13.3 6.17449 12.6591 6.17449 12C6.17449 11.3409 6.29045 10.7 6.49453 10.1V7.50903H3.08541C2.39431 8.85904 2.00006 10.3863 2.00006 12C2.00006 13.6136 2.39431 15.1409 3.08541 16.4909L6.49453 13.9Z" fill="#FBBC05"/>
<path fill-rule="evenodd" clip-rule="evenodd" d="M12.2038 5.97718C13.702 5.97718 15.0471 6.48173 16.1046 7.47264L19.0314 4.60444C17.2642 2.99079 14.9543 1.99988 12.2038 1.99988C8.21493 1.99988 4.76407 4.2408 3.08502 7.50901L6.49414 10.0999C7.29656 7.73628 9.54611 5.97718 12.2038 5.97718Z" fill="#EA4335"/>
</svg>
