<svg width="24" height="24" viewBox="0 0 24 24" fill="none" xmlns="http://www.w3.org/2000/svg">
<path d="M11.9929 3C6.4611 3 2 6.56884 2 10.9015C2 13.7137 3.85582 16.1763 6.63954 17.5824L5.69736 21.1013C5.67959 21.1541 5.67686 21.2107 5.68947 21.2649C5.70208 21.3191 5.72952 21.3687 5.76874 21.4082C5.82592 21.4587 5.89949 21.4865 5.97573 21.4867C6.03895 21.4817 6.09892 21.4567 6.14704 21.4154L10.2013 18.6816C10.7997 18.7642 11.403 18.8071 12.0071 18.8101C17.5318 18.8101 22 15.2412 22 10.9015C22 6.5617 17.5175 3 11.9929 3Z" fill="#392020"/>
</svg>
