<svg width="12" height="12" viewBox="0 0 12 12" fill="none" xmlns="http://www.w3.org/2000/svg">
<path fill-rule="evenodd" clip-rule="evenodd" d="M10.0796 1.91986C9.20832 1.04859 7.79575 1.04859 6.92446 1.91986L4.9988 3.84551L4.15028 2.99697L6.07594 1.07133C7.41585 -0.268561 9.58821 -0.268573 10.9281 1.07133C12.268 2.41123 12.268 4.58364 10.9281 5.92353L9.00247 7.8492L8.15394 7.00067L10.0796 5.07501C10.9509 4.20374 10.9509 2.79113 10.0796 1.91986ZM8.51493 4.33307L4.33307 8.51493L3.48454 7.6664L7.6664 3.48454L8.51493 4.33307ZM3.1816 5.66827L1.91986 6.92446C1.04893 7.79578 1.0487 9.20844 1.91986 10.0796C2.79098 10.9507 4.20324 10.9509 5.07454 10.0801L6.33121 8.81788L7.18159 9.66454L5.92446 10.9272L5.92354 10.9281C4.58364 12.2681 2.41123 12.268 1.07133 10.9281C-0.268572 9.58822 -0.268562 7.41586 1.07133 6.07594L2.33494 4.81788L3.1816 5.66827Z" fill="#858898"/>
</svg>
