<svg width="24" height="24" viewBox="0 0 24 24" fill="none" xmlns="http://www.w3.org/2000/svg">
<g clip-path="url(#clip0_4314_80155)">
<path d="M17 5.5C16 4 14.8308 3 12 3C9.16921 3 7.72371 4.42098 7 5.5C6.27629 6.57902 5.98463 8.46857 5.98451 9.79231V14.0336L3.21304 16.7732C3.11465 16.8703 3.04616 16.9964 3.01649 17.1353C2.98682 17.2742 2.99736 17.4194 3.04673 17.5518C3.0961 17.6843 3.182 17.7979 3.29324 17.8779C3.40447 17.9578 3.53587 18.0004 3.67027 18H20.3325C20.4665 17.9998 20.5974 17.9569 20.7081 17.8769C20.8188 17.7969 20.9043 17.6835 20.9534 17.5514C21.0026 17.4194 21.0131 17.2747 20.9837 17.1362C20.9543 16.9976 20.8862 16.8717 20.7884 16.7746L18.0169 14.0336V9.79231C18.0168 8.46857 17.9084 6.86263 17 5.5Z" stroke="#232332" stroke-width="1.7" stroke-linecap="round" stroke-linejoin="round"/>
<path d="M9 20.2082C9.21853 20.732 9.62449 21.1857 10.1619 21.5067C10.6992 21.8276 11.3415 22 12 22C12.6585 22 13.3008 21.8276 13.8381 21.5067C14.3755 21.1857 14.7815 20.732 15 20.2082V18L9 18.0005L9 20.2082Z" stroke="#232332" stroke-width="1.7"/>
</g>
<defs>
<clipPath id="clip0_4314_80155">
<rect width="20" height="21" fill="white" transform="translate(2 2)"/>
</clipPath>
</defs>
</svg>
