<svg width="24" height="24" viewBox="0 0 24 24" fill="none" xmlns="http://www.w3.org/2000/svg">
<path d="M22 10C22 6.25487 19.0588 3.1973 15.3604 3.00977L15 3H9C5.13401 3 2 6.13401 2 10C2 13.866 5.13401 17 9 17H9.11914L9.22949 17.0068C9.48462 17.0402 9.71315 17.1881 9.84766 17.4121L12 21L14.1523 17.4121L14.2148 17.3213C14.3748 17.1196 14.6195 17 14.8809 17H15C18.866 17 22 13.866 22 10ZM23.6992 10C23.6992 14.6818 20.0017 18.497 15.3672 18.6895L13.457 21.875C13.1496 22.387 12.5966 22.6992 12 22.6992C11.478 22.6992 10.989 22.4605 10.6689 22.0576L10.543 21.875L8.63184 18.6895C3.99779 18.4965 0.300781 14.6815 0.300781 10C0.300781 5.19512 4.19512 1.30078 9 1.30078H15L15.4473 1.31152C20.0443 1.54429 23.6992 5.34513 23.6992 10Z" fill="#232332"/>
</svg>
