<svg width="12" height="12" viewBox="0 0 12 12" fill="none" xmlns="http://www.w3.org/2000/svg">
<path d="M4.31587 2.59342C5.12918 2.19137 6.0595 2.09358 6.93864 2.31773C7.70904 2.51415 8.39557 2.94643 8.90457 3.54994L7.99989 3.54994C7.75136 3.54994 7.54989 3.75141 7.54989 3.99994C7.54989 4.24847 7.75136 4.44994 7.99989 4.44994L9.99989 4.44994C10.2484 4.44994 10.4499 4.24847 10.4499 3.99994V1.99994C10.4499 1.75141 10.2484 1.54994 9.99989 1.54994C9.75136 1.54994 9.54989 1.75141 9.54989 1.99994V2.91982C8.92488 2.19942 8.0925 1.68313 7.161 1.44563C6.07364 1.1684 4.92298 1.28935 3.91704 1.78661C2.91109 2.28388 2.11626 3.12465 1.67623 4.15691C1.23621 5.18918 1.18003 6.34481 1.51786 7.41489C1.85568 8.48497 2.56522 9.39887 3.51819 9.99136C4.47115 10.5839 5.60466 10.8158 6.71378 10.6454C7.8229 10.4749 8.83443 9.91326 9.56549 9.06195C10.2966 8.21064 10.6989 7.12585 10.6998 6.00371C10.7 5.75519 10.4987 5.55355 10.2502 5.55335C10.0017 5.55315 9.80002 5.75446 9.79982 6.00299C9.79909 6.91025 9.47378 7.78731 8.8827 8.47561C8.29163 9.1639 7.47379 9.61801 6.57706 9.75583C5.68033 9.89365 4.76388 9.70608 3.99339 9.22705C3.22291 8.74801 2.64924 8.00911 2.3761 7.14394C2.10297 6.27877 2.14839 5.34443 2.50415 4.50983C2.85992 3.67524 3.50255 2.99547 4.31587 2.59342Z" fill="#35363F"/>
</svg>
