<svg width="24" height="24" viewBox="0 0 24 24" fill="none" xmlns="http://www.w3.org/2000/svg">
<mask id="path-1-inside-1_4002_70251" fill="white">
<path d="M19.5 2.65039C19.9694 2.65039 20.3496 3.03056 20.3496 3.5V20.5C20.3496 20.8005 20.1912 21.0785 19.9326 21.2314C19.6741 21.3844 19.3541 21.3897 19.0908 21.2451L12 17.3486L4.90918 21.2451C4.6459 21.3897 4.32592 21.3844 4.06738 21.2314C3.80877 21.0785 3.65039 20.8005 3.65039 20.5V3.5L3.6543 3.41309C3.69782 2.98447 4.0599 2.65039 4.5 2.65039H19.5Z"/>
</mask>
<path d="M19.9326 21.2314L20.4417 22.0922L20.4417 22.0921L19.9326 21.2314ZM19.0908 21.2451L18.6092 22.1215L18.6095 22.1216L19.0908 21.2451ZM12 17.3486L12.4816 16.4722C12.1817 16.3074 11.8183 16.3074 11.5184 16.4722L12 17.3486ZM4.90918 21.2451L5.39053 22.1216L5.39077 22.1215L4.90918 21.2451ZM4.06738 21.2314L3.55826 22.0921L3.5583 22.0922L4.06738 21.2314ZM3.65039 3.5L2.6514 3.4551C2.65073 3.47006 2.65039 3.48503 2.65039 3.5H3.65039ZM3.6543 3.41309L2.65941 3.31205C2.65752 3.33072 2.65615 3.34944 2.65531 3.36819L3.6543 3.41309ZM19.5 2.65039V3.65039C19.4172 3.65039 19.3496 3.58284 19.3496 3.5H20.3496H21.3496C21.3496 2.47827 20.5217 1.65039 19.5 1.65039V2.65039ZM20.3496 3.5H19.3496V20.5H20.3496H21.3496V3.5H20.3496ZM20.3496 20.5H19.3496C19.3496 20.4474 19.3775 20.3979 19.4235 20.3708L19.9326 21.2314L20.4417 22.0921C21.0049 21.759 21.3496 21.1536 21.3496 20.5H20.3496ZM19.9326 21.2314L19.4235 20.3707C19.4686 20.3441 19.5252 20.3428 19.5722 20.3686L19.0908 21.2451L18.6095 22.1216C19.183 22.4366 19.8795 22.4247 20.4417 22.0922L19.9326 21.2314ZM19.0908 21.2451L19.5724 20.3687L12.4816 16.4722L12 17.3486L11.5184 18.225L18.6092 22.1215L19.0908 21.2451ZM12 17.3486L11.5184 16.4722L4.42759 20.3687L4.90918 21.2451L5.39077 22.1215L12.4816 18.225L12 17.3486ZM4.90918 21.2451L4.42783 20.3686C4.47484 20.3428 4.53137 20.3441 4.57646 20.3707L4.06738 21.2314L3.5583 22.0922C4.12047 22.4247 4.81697 22.4366 5.39053 22.1216L4.90918 21.2451ZM4.06738 21.2314L4.57651 20.3708C4.62248 20.3979 4.65039 20.4474 4.65039 20.5H3.65039H2.65039C2.65039 21.1536 2.99506 21.759 3.55826 22.0921L4.06738 21.2314ZM3.65039 20.5H4.65039V3.5H3.65039H2.65039V20.5H3.65039ZM3.65039 3.5L4.64938 3.5449L4.65329 3.45798L3.6543 3.41309L2.65531 3.36819L2.6514 3.4551L3.65039 3.5ZM3.6543 3.41309L4.64918 3.51412C4.64131 3.59161 4.5775 3.65039 4.5 3.65039V2.65039V1.65039C3.5423 1.65039 2.75434 2.37732 2.65941 3.31205L3.6543 3.41309ZM4.5 2.65039V3.65039H19.5V2.65039V1.65039H4.5V2.65039Z" fill="#35363F" mask="url(#path-1-inside-1_4002_70251)"/>
</svg>
