<svg width="24" height="24" viewBox="0 0 24 24" fill="none" xmlns="http://www.w3.org/2000/svg">
<path d="M13.7559 3.63081H12.9059C12.9059 3.99086 13.1327 4.31185 13.4721 4.43205C13.8115 4.55225 14.1898 4.44558 14.4164 4.1658L13.7559 3.63081ZM15.9258 3.22847L16.3509 2.49243L16.3505 2.49221L15.9258 3.22847ZM17.4863 4.12984L17.0612 4.86588C17.1904 4.94053 17.3371 4.97984 17.4863 4.97984V4.12984ZM17.4873 4.12984L17.9464 3.41449C17.8094 3.32657 17.6501 3.27984 17.4873 3.27984V4.12984ZM17.6182 4.21382L18.1088 3.51973C18.0985 3.51241 18.0879 3.50532 18.0773 3.49847L17.6182 4.21382ZM18.2725 6.06246L19.0794 6.32965C19.0834 6.31759 19.0871 6.30544 19.0905 6.29322L18.2725 6.06246ZM18.2236 6.20992L19.0172 6.51452C19.0219 6.50216 19.0264 6.48968 19.0305 6.47711L18.2236 6.20992ZM17.541 7.98824L16.7475 7.68363C16.6441 7.95299 16.6844 8.25641 16.8545 8.48943L17.541 7.98824ZM18.2959 9.2939L17.519 9.63872C17.6358 9.90185 17.8778 10.088 18.1621 10.1333L18.2959 9.2939ZM20.1768 9.59371L20.3456 8.76065C20.334 8.75829 20.3223 8.75617 20.3106 8.7543L20.1768 9.59371ZM20.249 9.60835L20.4552 8.78373C20.4428 8.78064 20.4304 8.77783 20.4179 8.7753L20.249 9.60835ZM20.3975 9.64546L20.6407 8.83102C20.6284 8.82735 20.6161 8.82395 20.6036 8.82084L20.3975 9.64546ZM20.4727 9.66792L20.7543 8.86594C20.7416 8.86148 20.7288 8.85733 20.7159 8.85348L20.4727 9.66792ZM21.6084 11.2714L22.4584 11.2714L22.4584 11.2705L21.6084 11.2714ZM21.6084 13.0752L22.4584 13.0756V13.0752H21.6084ZM21.6055 13.1503L22.4521 13.2258L22.4521 13.2255L21.6055 13.1503ZM21.5918 13.3037L22.4384 13.3793L22.4384 13.3792L21.5918 13.3037ZM21.5811 13.3808L22.4172 13.5339L22.4172 13.5335L21.5811 13.3808ZM20.1768 14.7529V15.6029C20.2217 15.6029 20.2665 15.5993 20.3108 15.5922L20.1768 14.7529ZM20.1758 14.7529V13.9029C20.1314 13.9029 20.087 13.9064 20.0431 13.9133L20.1758 14.7529ZM18.2969 15.0498L18.1642 14.2102C17.8793 14.2552 17.6367 14.4416 17.5198 14.7053L18.2969 15.0498ZM17.541 16.3574L16.8545 15.8562C16.6844 16.0891 16.6441 16.3924 16.7474 16.6617L17.541 16.3574ZM18.2236 18.1377L19.0311 17.8722C19.0268 17.8591 19.0222 17.8462 19.0173 17.8333L18.2236 18.1377ZM18.2471 18.2089L19.0646 17.9761C19.0614 17.9652 19.0581 17.9543 19.0546 17.9435L18.2471 18.2089ZM18.2891 18.3564L19.1173 18.1653C19.1141 18.1513 19.1105 18.1374 19.1066 18.1236L18.2891 18.3564ZM18.3066 18.4326L19.142 18.2757C19.1399 18.2642 19.1375 18.2528 19.1349 18.2414L18.3066 18.4326ZM17.4873 20.2177V21.0677C17.6368 21.0677 17.7836 21.0283 17.913 20.9534L17.4873 20.2177ZM17.4863 20.2177V19.3677C17.3371 19.3677 17.1904 19.407 17.0612 19.4817L17.4863 20.2177ZM15.9258 21.1191L16.324 21.87C16.3331 21.8652 16.342 21.8603 16.3509 21.8551L15.9258 21.1191ZM15.8613 21.1533L16.222 21.923C16.2346 21.917 16.2472 21.9108 16.2596 21.9042L15.8613 21.1533ZM15.7217 21.2187L16.0817 21.9887L16.0823 21.9884L15.7217 21.2187ZM15.6465 21.249L15.9318 22.0497L15.932 22.0496L15.6465 21.249ZM13.7559 20.7168L14.4164 20.1818C14.1898 19.902 13.8115 19.7953 13.4721 19.9155C13.1327 20.0357 12.9059 20.3567 12.9059 20.7168H13.7559ZM13.7559 20.7177L13.0954 21.2527C13.322 21.5325 13.7003 21.6392 14.0397 21.519C14.379 21.3987 14.6059 21.0778 14.6059 20.7177H13.7559ZM12.5566 19.2373L13.2171 18.7022C13.0355 18.4779 12.7524 18.3612 12.4654 18.3922L12.5566 19.2373ZM12.127 19.2724L12.1476 20.1222C12.1539 20.122 12.1603 20.1218 12.1666 20.1215L12.127 19.2724ZM11.8047 19.2802L11.8046 20.1302C11.8115 20.1302 11.8184 20.1301 11.8253 20.13L11.8047 19.2802ZM11.0498 19.2373L11.1411 18.3922C10.854 18.3612 10.5708 18.478 10.3891 18.7025L11.0498 19.2373ZM9.85156 20.7177L10.4875 21.2817C10.496 21.2721 10.5042 21.2624 10.5123 21.2525L9.85156 20.7177ZM9.80566 20.7695L10.42 21.3569C10.4274 21.3492 10.4346 21.3414 10.4416 21.3335L9.80566 20.7695ZM9.69922 20.8808L10.2852 21.4966C10.2949 21.4873 10.3043 21.4779 10.3136 21.4682L9.69922 20.8808ZM9.63867 20.9384L10.1923 21.5834C10.2034 21.5739 10.2141 21.5642 10.2246 21.5542L9.63867 20.9384ZM7.80273 21.1826L7.40559 21.9341C7.41607 21.9396 7.42666 21.9449 7.43736 21.95L7.80273 21.1826ZM7.68262 21.1191L7.25748 21.8551C7.26671 21.8605 7.27605 21.8656 7.28547 21.8706L7.68262 21.1191ZM6.12207 20.2177L5.69656 20.9536L5.69693 20.9538L6.12207 20.2177ZM6.06055 20.1787L5.57419 20.8758L6.06055 20.1787ZM5.93457 20.0908L5.44788 20.7876L5.44822 20.7879L5.93457 20.0908ZM5.87012 20.0419L5.31916 20.6892L5.31957 20.6896L5.87012 20.0419ZM5.38477 18.1377L6.17853 18.4417L6.17877 18.4411L5.38477 18.1377ZM6.06543 16.3564L6.85943 16.6598C6.96223 16.3908 6.92183 16.0881 6.7521 15.8554L6.06543 16.3564ZM5.31055 15.0507L6.08754 14.7061C5.9707 14.4427 5.72833 14.2564 5.4437 14.2112L5.31055 15.0507ZM3.43262 14.7529L3.29886 15.5923L3.29947 15.5924L3.43262 14.7529ZM2 13.0752L1.15 13.0752L1.15 13.0755L2 13.0752ZM2 11.2714L1.15082 11.2341C1.15027 11.2465 1.15 11.259 1.15 11.2714L2 11.2714ZM2.00684 11.1162L1.16041 11.0383C1.15917 11.0518 1.15825 11.0653 1.15766 11.0788L2.00684 11.1162ZM3.43262 9.59371L3.56632 10.4331L3.56655 10.4331L3.43262 9.59371ZM5.31152 9.2939L5.44546 10.1333C5.72973 10.0879 5.97173 9.90176 6.08848 9.63863L5.31152 9.2939ZM6.06543 7.98921L6.75212 8.49017C6.9219 8.25745 6.96225 7.95457 6.85932 7.68551L6.06543 7.98921ZM5.38477 6.20992L6.17866 5.90622L6.17863 5.90613L5.38477 6.20992ZM6.12109 4.12984V3.27984C5.97163 3.27984 5.8248 3.31925 5.69543 3.3941L6.12109 4.12984ZM6.12207 4.12984V4.97984C6.27133 4.97984 6.41796 4.94053 6.54721 4.86588L6.12207 4.12984ZM7.68262 3.22847L7.28761 2.47583C7.27746 2.48116 7.26741 2.48669 7.25748 2.49243L7.68262 3.22847ZM7.82031 3.15621L7.46389 2.38454C7.45087 2.39056 7.43801 2.3969 7.42531 2.40356L7.82031 3.15621ZM9.85059 3.63081L9.19043 4.16625C9.34211 4.35326 9.56598 4.46716 9.80643 4.47967C10.0469 4.49217 10.2814 4.40211 10.4516 4.23186L9.85059 3.63081ZM9.85156 3.62984L10.5119 3.09461C10.3602 2.90752 10.1363 2.79354 9.89585 2.78099C9.65535 2.76845 9.42081 2.85851 9.25052 3.0288L9.85156 3.62984ZM11.0508 5.10933L10.3905 5.64456C10.5719 5.86844 10.8545 5.98513 11.141 5.95452L11.0508 5.10933ZM11.8047 5.06734L11.8254 4.21759C11.8184 4.21742 11.8115 4.21734 11.8046 4.21734L11.8047 5.06734ZM12.126 5.07515L12.1648 4.22604C12.1588 4.22576 12.1527 4.22555 12.1466 4.2254L12.126 5.07515ZM12.5557 5.10835L12.4655 5.95356C12.7518 5.9841 13.0341 5.86762 13.2156 5.64406L12.5557 5.10835ZM13.7559 3.62984H14.6059C14.6059 3.26996 14.3792 2.94909 14.0401 2.82876C13.7009 2.70843 13.3227 2.81473 13.0959 3.09413L13.7559 3.62984ZM11.8047 8.32417L11.8047 7.47417H11.8047V8.32417ZM7.95508 12.1738L7.10508 12.1737V12.1738H7.95508ZM11.8047 16.0234L11.8047 16.8734L11.8047 16.8734L11.8047 16.0234ZM15.6543 12.1738L16.5043 12.1738L16.5043 12.1737L15.6543 12.1738ZM13.7559 3.63081L14.4164 4.1658C14.6793 3.84124 15.139 3.75589 15.501 3.96473L15.9258 3.22847L16.3505 2.49221C15.2644 1.86563 13.8843 2.12167 13.0953 3.09583L13.7559 3.63081ZM15.9258 3.22847L15.5006 3.96451L17.0612 4.86588L17.4863 4.12984L17.9115 3.3938L16.3509 2.49243L15.9258 3.22847ZM17.4863 4.12984V4.97984H17.4873V4.12984V3.27984H17.4863V4.12984ZM17.4873 4.12984L17.0282 4.84519L17.1591 4.92917L17.6182 4.21382L18.0773 3.49847L17.9464 3.41449L17.4873 4.12984ZM17.6182 4.21382L17.1275 4.90792C17.4201 5.11474 17.5517 5.48656 17.4544 5.83169L18.2725 6.06246L19.0905 6.29322C19.3833 5.25544 18.9897 4.14244 18.1088 3.51973L17.6182 4.21382ZM18.2725 6.06246L17.4655 5.79527L17.4167 5.94273L18.2236 6.20992L19.0305 6.47711L19.0794 6.32965L18.2725 6.06246ZM18.2236 6.20992L17.4301 5.90531L16.7475 7.68363L17.541 7.98824L18.3346 8.29284L19.0172 6.51452L18.2236 6.20992ZM17.541 7.98824L16.8545 8.48943C17.1146 8.84574 17.3379 9.23065 17.519 9.63872L18.2959 9.2939L19.0728 8.94908C18.8424 8.42982 18.5583 7.94017 18.2275 7.48704L17.541 7.98824ZM18.2959 9.2939L18.1621 10.1333L20.043 10.4331L20.1768 9.59371L20.3106 8.7543L18.4297 8.4545L18.2959 9.2939ZM20.1768 9.59371L20.0079 10.4268L20.0802 10.4414L20.249 9.60835L20.4179 8.7753L20.3456 8.76065L20.1768 9.59371ZM20.249 9.60835L20.0429 10.433L20.1913 10.4701L20.3975 9.64546L20.6036 8.82084L20.4552 8.78373L20.249 9.60835ZM20.3975 9.64546L20.1542 10.4599L20.2294 10.4824L20.4727 9.66792L20.7159 8.85348L20.6407 8.83102L20.3975 9.64546ZM20.4727 9.66792L20.191 10.4699C20.5256 10.5874 20.758 10.9067 20.7584 11.2723L21.6084 11.2714L22.4584 11.2705C22.4572 10.176 21.7618 9.21976 20.7543 8.86594L20.4727 9.66792ZM21.6084 11.2714H20.7584V13.0752H21.6084H22.4584V11.2714H21.6084ZM21.6084 13.0752L20.7584 13.0747L20.7588 13.0752L21.6055 13.1503L22.4521 13.2255C22.4573 13.1672 22.4584 13.1151 22.4584 13.0756L21.6084 13.0752ZM21.6055 13.1503L20.7588 13.0748L20.7452 13.2282L21.5918 13.3037L22.4384 13.3792L22.4521 13.2258L21.6055 13.1503ZM21.5918 13.3037L20.7452 13.2281L20.7449 13.2282L21.5811 13.3808L22.4172 13.5335C22.4254 13.4887 22.4333 13.4365 22.4384 13.3793L21.5918 13.3037ZM21.5811 13.3808L20.745 13.2277C20.681 13.5769 20.4029 13.856 20.0427 13.9135L20.1768 14.7529L20.3108 15.5922C21.3938 15.4193 22.2255 14.5808 22.4172 13.5339L21.5811 13.3808ZM20.1768 14.7529V13.9029H20.1758V14.7529V15.6029H20.1768V14.7529ZM20.1758 14.7529L20.0431 13.9133L18.1642 14.2102L18.2969 15.0498L18.4295 15.8893L20.3084 15.5925L20.1758 14.7529ZM18.2969 15.0498L17.5198 14.7053C17.3386 15.114 17.1151 15.4992 16.8545 15.8562L17.541 16.3574L18.2275 16.8585C18.5587 16.4049 18.8431 15.9149 19.0739 15.3943L18.2969 15.0498ZM17.541 16.3574L16.7474 16.6617L17.43 18.442L18.2236 18.1377L19.0173 17.8333L18.3347 16.0531L17.541 16.3574ZM18.2236 18.1377L17.4162 18.4031L17.4396 18.4744L18.2471 18.2089L19.0546 17.9435L19.0311 17.8722L18.2236 18.1377ZM18.2471 18.2089L17.4296 18.4417L17.4716 18.5892L18.2891 18.3564L19.1066 18.1236L19.0646 17.9761L18.2471 18.2089ZM18.2891 18.3564L17.4608 18.5475L17.4784 18.6237L18.3066 18.4326L19.1349 18.2414L19.1173 18.1653L18.2891 18.3564ZM18.3066 18.4326L17.4712 18.5894C17.5369 18.9391 17.3772 19.2994 17.0616 19.482L17.4873 20.2177L17.913 20.9534C18.8636 20.4034 19.3384 19.3215 19.142 18.2757L18.3066 18.4326ZM17.4873 20.2177V19.3677H17.4863V20.2177V21.0677H17.4873V20.2177ZM17.4863 20.2177L17.0612 19.4817L15.5006 20.3831L15.9258 21.1191L16.3509 21.8551L17.9115 20.9538L17.4863 20.2177ZM15.9258 21.1191L15.5276 20.3682L15.4631 20.4023L15.8613 21.1533L16.2596 21.9042L16.324 21.87L15.9258 21.1191ZM15.8613 21.1533L15.5007 20.3836L15.361 20.449L15.7217 21.2187L16.0823 21.9884L16.222 21.923L15.8613 21.1533ZM15.7217 21.2187L15.3616 20.4487L15.361 20.4484L15.6465 21.249L15.932 22.0496C15.9698 22.0361 16.0232 22.0161 16.0817 21.9887L15.7217 21.2187ZM15.6465 21.249L15.3612 20.4483C15.0268 20.5674 14.6462 20.4655 14.4164 20.1818L13.7559 20.7168L13.0953 21.2517C13.7848 22.1031 14.9266 22.4078 15.9318 22.0497L15.6465 21.249ZM13.7559 20.7168H12.9059V20.7177H13.7559H14.6059V20.7168H13.7559ZM13.7559 20.7177L14.4164 20.1827L13.2171 18.7022L12.5566 19.2373L11.8961 19.7723L13.0954 21.2527L13.7559 20.7177ZM12.5566 19.2373L12.4654 18.3922C12.3322 18.4066 12.2078 18.4177 12.0873 18.4233L12.127 19.2724L12.1666 20.1215C12.3354 20.1136 12.4977 20.0986 12.6479 20.0823L12.5566 19.2373ZM12.127 19.2724L12.1064 18.4227L11.7841 18.4305L11.8047 19.2802L11.8253 20.13L12.1476 20.1222L12.127 19.2724ZM11.8047 19.2802L11.8047 18.4302C11.5848 18.4302 11.3638 18.4162 11.1411 18.3922L11.0498 19.2373L10.9585 20.0823C11.2303 20.1117 11.5131 20.1302 11.8046 20.1302L11.8047 19.2802ZM11.0498 19.2373L10.3891 18.7025L9.19085 20.183L9.85156 20.7177L10.5123 21.2525L11.7105 19.772L11.0498 19.2373ZM9.85156 20.7177L9.2156 20.1538L9.1697 20.2055L9.80566 20.7695L10.4416 21.3335L10.4875 21.2817L9.85156 20.7177ZM9.80566 20.7695L9.1913 20.1821L9.08486 20.2934L9.69922 20.8808L10.3136 21.4682L10.42 21.3569L9.80566 20.7695ZM9.69922 20.8808L9.11326 20.2651L9.05271 20.3227L9.63867 20.9384L10.2246 21.5542L10.2852 21.4966L9.69922 20.8808ZM9.63867 20.9384L9.085 20.2935C8.83264 20.5101 8.4723 20.5599 8.16811 20.4151L7.80273 21.1826L7.43736 21.95C8.35127 22.3851 9.43179 22.2363 10.1923 21.5834L9.63867 20.9384ZM7.80273 21.1826L8.19988 20.4311L8.07976 20.3676L7.68262 21.1191L7.28547 21.8706L7.40559 21.9341L7.80273 21.1826ZM7.68262 21.1191L8.10775 20.3831L6.54721 19.4817L6.12207 20.2177L5.69693 20.9538L7.25748 21.8551L7.68262 21.1191ZM6.12207 20.2177L6.54758 19.4819L6.5469 19.4816L6.06055 20.1787L5.57419 20.8758C5.61503 20.9043 5.65645 20.9304 5.69656 20.9536L6.12207 20.2177ZM6.06055 20.1787L6.5469 19.4816L6.42092 19.3937L5.93457 20.0908L5.44822 20.7879L5.57419 20.8758L6.06055 20.1787ZM5.93457 20.0908L6.42126 19.3939C6.41506 19.3896 6.41253 19.3877 6.41209 19.3874C6.4117 19.3871 6.41499 19.3895 6.42066 19.3943L5.87012 20.0419L5.31957 20.6896C5.37027 20.7327 5.41773 20.7666 5.44788 20.7876L5.93457 20.0908ZM5.87012 20.0419L6.42107 19.3947C6.15052 19.1644 6.04799 18.7825 6.17853 18.4417L5.38477 18.1377L4.591 17.8336C4.19903 18.8569 4.50759 19.9984 5.31916 20.6892L5.87012 20.0419ZM5.38477 18.1377L6.17877 18.4411L6.85943 16.6598L6.06543 16.3564L5.27143 16.053L4.59076 17.8342L5.38477 18.1377ZM6.06543 16.3564L6.7521 15.8554C6.49196 15.4989 6.26845 15.114 6.08754 14.7061L5.31055 15.0507L4.53355 15.3954C4.76417 15.9153 5.04858 16.4048 5.37876 16.8574L6.06543 16.3564ZM5.31055 15.0507L5.4437 14.2112L3.56577 13.9134L3.43262 14.7529L3.29947 15.5924L5.1774 15.8902L5.31055 15.0507ZM3.43262 14.7529L3.56637 13.9135C3.15381 13.8477 2.85017 13.4924 2.85 13.0748L2 13.0752L1.15 13.0755C1.1505 14.3298 2.06277 15.3953 3.29886 15.5923L3.43262 14.7529ZM2 13.0752H2.85V11.2714H2H1.15V13.0752H2ZM2 11.2714L2.84918 11.3088L2.85601 11.1536L2.00684 11.1162L1.15766 11.0788L1.15082 11.2341L2 11.2714ZM2.00684 11.1162L2.85326 11.194C2.88846 10.8112 3.18013 10.4946 3.56632 10.4331L3.43262 9.59371L3.29891 8.75429C2.13894 8.93905 1.26618 9.88814 1.16041 11.0383L2.00684 11.1162ZM3.43262 9.59371L3.56655 10.4331L5.44546 10.1333L5.31152 9.2939L5.17759 8.45452L3.29868 8.75432L3.43262 9.59371ZM5.31152 9.2939L6.08848 9.63863C6.26942 9.23083 6.49236 8.84623 6.75212 8.49017L6.06543 7.98921L5.37874 7.48825C5.04841 7.94106 4.76478 8.43031 4.53457 8.94917L5.31152 9.2939ZM6.06543 7.98921L6.85932 7.68551L6.17866 5.90622L5.38477 6.20992L4.59087 6.51362L5.27154 8.29291L6.06543 7.98921ZM5.38477 6.20992L6.17863 5.90613C6.02927 5.51583 6.18549 5.07459 6.54676 4.86557L6.12109 4.12984L5.69543 3.3941C4.61045 4.02183 4.14354 5.34465 4.59091 6.5137L5.38477 6.20992ZM6.12109 4.12984V4.97984H6.12207V4.12984V3.27984H6.12109V4.12984ZM6.12207 4.12984L6.54721 4.86588L8.10775 3.96451L7.68262 3.22847L7.25748 2.49243L5.69693 3.3938L6.12207 4.12984ZM7.68262 3.22847L8.07762 3.98111L8.21532 3.90885L7.82031 3.15621L7.42531 2.40356L7.28761 2.47583L7.68262 3.22847ZM7.82031 3.15621L8.17673 3.92787C8.52403 3.76746 8.94297 3.86115 9.19043 4.16625L9.85059 3.63081L10.5107 3.09538C9.77217 2.18477 8.51542 1.89885 7.46389 2.38454L7.82031 3.15621ZM9.85059 3.63081L10.4516 4.23186L10.4526 4.23088L9.85156 3.62984L9.25052 3.0288L9.24955 3.02977L9.85059 3.63081ZM9.85156 3.62984L9.19124 4.16507L10.3905 5.64456L11.0508 5.10933L11.7111 4.5741L10.5119 3.09461L9.85156 3.62984ZM11.0508 5.10933L11.141 5.95452C11.3631 5.93081 11.5843 5.91735 11.8047 5.91734L11.8047 5.06734L11.8046 4.21734C11.5153 4.21735 11.2333 4.23501 10.9605 4.26414L11.0508 5.10933ZM11.8047 5.06734L11.784 5.91709L12.1053 5.9249L12.126 5.07515L12.1466 4.2254L11.8254 4.21759L11.8047 5.06734ZM12.126 5.07515L12.0871 5.92426C12.2124 5.92999 12.3387 5.94003 12.4655 5.95356L12.5557 5.10835L12.6458 4.26315C12.4891 4.24643 12.3284 4.23352 12.1648 4.22604L12.126 5.07515ZM12.5557 5.10835L13.2156 5.64406L14.4158 4.16555L13.7559 3.62984L13.0959 3.09413L11.8957 4.57265L12.5557 5.10835ZM13.7559 3.62984H12.9059V3.63081H13.7559H14.6059V3.62984H13.7559ZM11.8047 8.32417V7.47417C9.20901 7.47417 7.1054 9.57835 7.10508 12.1737L7.95508 12.1738L8.80508 12.1739C8.80528 10.5171 10.1481 9.17417 11.8047 9.17417V8.32417ZM7.95508 12.1738H7.10508C7.10508 14.7695 9.20895 16.8734 11.8047 16.8734V16.0234V15.1734C10.1478 15.1734 8.80508 13.8306 8.80508 12.1738H7.95508ZM11.8047 16.0234L11.8047 16.8734C14.4003 16.8732 16.5043 14.7695 16.5043 12.1738H15.6543H14.8043C14.8043 13.8305 13.4615 15.1733 11.8046 15.1734L11.8047 16.0234ZM15.6543 12.1738L16.5043 12.1737C16.504 9.57838 14.4002 7.47432 11.8047 7.47417L11.8047 8.32417L11.8046 9.17417C13.4612 9.17427 14.8041 10.5172 14.8043 12.1739L15.6543 12.1738Z" fill="#232332"/>
</svg>
