<svg width="24" height="24" viewBox="0 0 24 24" fill="none" xmlns="http://www.w3.org/2000/svg">
<path d="M19.3535 2.15039C20.135 2.15039 20.8325 2.64109 21.0957 3.37695L23.2422 9.37891L23.2891 9.53125C23.3294 9.68468 23.3496 9.84286 23.3496 10.002V20C23.3496 21.0217 22.5217 21.8496 21.5 21.8496H2.5C1.47827 21.8496 0.650391 21.0217 0.650391 20V10.002C0.650395 9.78967 0.686332 9.5788 0.757812 9.37891L2.9043 3.37695L2.95898 3.24219C3.25529 2.58184 3.91376 2.15039 4.64648 2.15039H19.3535ZM2.34961 20C2.34961 20.0828 2.41716 20.1504 2.5 20.1504H21.5C21.5828 20.1504 21.6504 20.0828 21.6504 20V10.8496H17.0664C17.0269 10.8496 16.9896 10.8658 16.9619 10.8926L16.9375 10.9229L16.0205 12.4521C15.6862 13.0093 15.0834 13.3496 14.4336 13.3496H9.56641C8.95724 13.3496 8.38993 13.0502 8.0459 12.5537L7.97949 12.4521L7.0625 10.9229C7.03539 10.8777 6.98628 10.8496 6.93359 10.8496H2.34961V20ZM4.64648 3.84961C4.59888 3.84961 4.55521 3.8727 4.52734 3.90918L4.50488 3.94922L2.64453 9.15039H6.93359C7.58339 9.15039 8.18616 9.49068 8.52051 10.0479L9.4375 11.5771L9.46191 11.6074C9.48955 11.6342 9.5269 11.6504 9.56641 11.6504H14.4336C14.4863 11.6504 14.5354 11.6223 14.5625 11.5771L15.4795 10.0479L15.5459 9.94629C15.8899 9.44976 16.4572 9.15039 17.0664 9.15039H21.3555L19.4951 3.94922C19.4737 3.88966 19.4168 3.84961 19.3535 3.84961H4.64648Z" fill="#232332"/>
</svg>
