<svg width="61" height="61" viewBox="0 0 61 61" fill="none" xmlns="http://www.w3.org/2000/svg">
<path d="M58.8328 34.6825C56.9146 49.2552 41.6487 58.5166 26.3755 56.5062C11.1022 54.4959 0.27576 41.0527 2.1939 26.48C4.11203 11.9073 18.0484 1.72346 33.3217 3.73381C48.5949 5.74415 60.7509 20.1098 58.8328 34.6825Z" fill="#232332"/>
<path d="M24 43L16.7613 34.1527C15.7957 32.9725 15.9918 31.2286 17.1955 30.2924C18.4401 29.3244 20.2448 29.6172 21.1194 30.9291L24.5 36L40.5346 21.3016C41.6336 20.2942 43.3311 20.3311 44.3853 21.3853C45.528 22.528 45.4612 24.4003 44.24 25.4587L24 43Z" fill="#28C86E"/>
</svg>
