<svg width="22" height="22" viewBox="0 0 22 22" fill="none" xmlns="http://www.w3.org/2000/svg">
<path d="M20.0673 6.74346H20.289L20.2064 6.53778C18.6453 2.64809 15.3044 0.285767 11.1436 0.285767C8.41991 0.285767 5.88266 1.26443 4.02579 3.09477C2.16796 4.92606 1 7.60122 1 10.9772C1 14.3666 2.18127 17.0419 4.04566 18.8698C5.90893 20.6966 8.44602 21.6687 11.1436 21.6687C13.9848 21.6687 16.4515 20.6637 18.2079 18.8642C19.9641 17.0647 21 14.4813 21 11.3425V10.064V9.91416H20.8502H10.9609H10.811V10.064V13.1952V13.345H10.9609H17.0727C16.8069 14.8494 16.1256 16.0403 15.1376 16.8635C14.1118 17.7184 12.7448 18.1856 11.1436 18.1856C7.56655 18.1856 4.95276 15.2467 4.95276 10.9772C4.95276 6.70774 7.56655 3.76885 11.1436 3.76885C13.2856 3.76885 15.2645 4.91694 16.1234 6.65984L16.1645 6.74346H16.2578H20.0673Z" fill="#DDDDE8" stroke="#DDDDE8" stroke-width="0.299729"/>
</svg>
