<svg width="16" height="16" viewBox="0 0 16 16" fill="none" xmlns="http://www.w3.org/2000/svg">
<path fill-rule="evenodd" clip-rule="evenodd" d="M3.3812 1.73316C3.21165 1.73314 3.05029 1.73312 2.91432 1.74423C2.76604 1.75635 2.59597 1.7846 2.42599 1.87121C2.18765 1.99265 1.99387 2.18643 1.87244 2.42477C1.78582 2.59475 1.75757 2.76482 1.74545 2.9131C1.73434 3.04907 1.73436 3.21043 1.73438 3.37998V12.6196C1.73436 12.7892 1.73434 12.9505 1.74545 13.0865C1.75757 13.2348 1.78582 13.4049 1.87244 13.5748C1.99387 13.8132 2.18765 14.007 2.42599 14.1284C2.59597 14.215 2.76604 14.2433 2.91432 14.2554C3.05028 14.2665 3.21163 14.2665 3.38116 14.2665H12.6208C12.7904 14.2665 12.9518 14.2665 13.0877 14.2554C13.236 14.2433 13.4061 14.215 13.5761 14.1284C13.8144 14.007 14.0082 13.8132 14.1296 13.5748C14.2162 13.4049 14.2445 13.2348 14.2566 13.0865C14.2677 12.9506 14.2677 12.7892 14.2677 12.6197V3.37998C14.2677 3.21044 14.2677 3.04906 14.2566 2.9131C14.2445 2.76482 14.2162 2.59475 14.1296 2.42477C14.0082 2.18643 13.8144 1.99265 13.5761 1.87121C13.4061 1.7846 13.236 1.75635 13.0877 1.74423C12.9518 1.73312 12.7904 1.73314 12.6208 1.73316H3.3812ZM2.93438 2.99979C2.93438 2.96297 2.96423 2.93312 3.00105 2.93312H13.001C13.0378 2.93312 13.0677 2.96297 13.0677 2.99979V9.2183L11.3342 7.48487L9.00092 9.8182L5.6676 6.48487L2.93438 9.21809V2.99979ZM11.5009 5.3334C11.5009 5.79364 11.1278 6.16674 10.6676 6.16674C10.2074 6.16674 9.83426 5.79364 9.83426 5.3334C9.83426 4.87317 10.2074 4.50007 10.6676 4.50007C11.1278 4.50007 11.5009 4.87317 11.5009 5.3334Z" fill="#ADAFBB"/>
</svg>
