<svg width="16" height="17" viewBox="0 0 16 17" fill="none" xmlns="http://www.w3.org/2000/svg">
<path fill-rule="evenodd" clip-rule="evenodd" d="M7.31435 4.87055C6.33738 3.51407 4.48165 3.30859 3.25627 4.40232C2.00508 5.51909 1.92809 7.52161 3.09437 8.73987L7.99989 13.6856L12.9054 8.73988C14.0717 7.52162 13.9947 5.5191 12.7435 4.40233C11.5181 3.30858 9.66243 3.51407 8.68543 4.87055L8.48675 5.1464C8.37399 5.30295 8.19283 5.39573 7.99989 5.39573C7.80696 5.39573 7.62579 5.30295 7.51303 5.1464L7.31435 4.87055ZM7.99989 3.81209C9.4449 2.21136 11.8927 2.03445 13.5426 3.50706C15.3049 5.08006 15.4058 7.86874 13.7677 9.5744L13.761 9.58133L8.77989 14.6032C8.35074 15.0455 7.64905 15.0455 7.2199 14.6032L2.23881 9.58133L2.23204 9.57439C0.594057 7.86874 0.694869 5.08007 2.4572 3.50707C4.10706 2.03445 6.5549 2.21135 7.99989 3.81209Z" fill="#858898"/>
</svg>
