<svg width="32" height="32" viewBox="0 0 32 32" fill="none" xmlns="http://www.w3.org/2000/svg">
<g clip-path="url(#clip0_3656_53239)">
<rect width="32" height="32" rx="16" fill="#CE986B"/>
<path opacity="0.4" d="M0 32L32 0V32H0Z" fill="#AD7242"/>
<path d="M16.4922 22.1562C14.0703 22.1562 12.3516 20.8438 12.3047 18.9375H14.3516C14.4141 19.8438 15.3203 20.4375 16.4922 20.4375C17.7422 20.4375 18.6328 19.75 18.6328 18.75C18.6328 17.7344 17.7578 17 16.2891 17H15.2734V15.4375H16.2891C17.4922 15.4375 18.3359 14.7656 18.3203 13.7812C18.3359 12.8281 17.6172 12.1875 16.5078 12.1875C15.4453 12.1875 14.5234 12.7812 14.4922 13.7344H12.5391C12.5859 11.8281 14.3047 10.5312 16.5234 10.5312C18.8203 10.5312 20.3047 11.9375 20.2891 13.6719C20.3047 14.9375 19.4609 15.8594 18.2266 16.1094V16.2031C19.8203 16.4219 20.7266 17.4375 20.7109 18.8594C20.7266 20.7656 18.9453 22.1562 16.4922 22.1562Z" fill="white"/>
</g>
<rect x="1" y="1" width="30" height="30" rx="15" stroke="white" stroke-opacity="0.3" stroke-width="2"/>
<defs>
<clipPath id="clip0_3656_53239">
<rect width="32" height="32" rx="16" fill="white"/>
</clipPath>
</defs>
</svg>
