<svg width="61" height="60" viewBox="0 0 61 60" fill="none" xmlns="http://www.w3.org/2000/svg">
<path d="M5.88675 43.7415L3.5 23.5L28.537 35L55.5 23.5V42.428C55.5 45.7766 53.4145 48.7709 50.2736 49.9318L31.1883 56.9861C28.5769 57.9514 25.6813 57.7842 23.1982 56.525L10.2132 49.9395C7.82442 48.728 6.2004 46.4015 5.88675 43.7415Z" fill="#232332"/>
<path d="M28.5 12L4.5 20.5L28.5 32L55 21.5L28.5 12Z" fill="#CACCD8"/>
<path d="M30.0446 22.4651L30.2354 19.1164L25.7707 18.8621L26.4822 23.1214L30.0446 22.4651Z" fill="#8989A6"/>
<path d="M30.3313 16.0561L30.3313 3.55607L25.3316 2.55612L26.3315 16.0561L30.3313 16.0561Z" fill="#8989A6"/>
</svg>
