<svg width="16" height="17" viewBox="0 0 16 17" fill="none" xmlns="http://www.w3.org/2000/svg">
<path fill-rule="evenodd" clip-rule="evenodd" d="M2.34908 8.50013C3.42442 6.47742 5.55328 5.10015 8.00383 5.10015C10.4544 5.10015 12.5832 6.47742 13.6586 8.50013C12.5832 10.5228 10.4544 11.9001 8.00383 11.9001C5.55328 11.9001 3.42442 10.5228 2.34908 8.50013ZM14.8705 8.76133C14.9492 8.59605 14.9492 8.40421 14.8705 8.23893C13.6499 5.67347 11.034 3.90015 8.00383 3.90015C4.97369 3.90015 2.35773 5.67347 1.13713 8.23893C1.0585 8.40421 1.0585 8.59605 1.13713 8.76133C2.35773 11.3268 4.97369 13.1001 8.00383 13.1001C11.034 13.1001 13.6499 11.3268 14.8705 8.76133ZM6.60383 8.50015C6.60383 7.72695 7.23063 7.10015 8.00383 7.10015C8.77702 7.10015 9.40383 7.72695 9.40383 8.50015C9.40383 9.27335 8.77702 9.90015 8.00383 9.90015C7.23063 9.90015 6.60383 9.27335 6.60383 8.50015ZM8.00383 5.90015C6.56789 5.90015 5.40383 7.06421 5.40383 8.50015C5.40383 9.93609 6.56789 11.1001 8.00383 11.1001C9.43977 11.1001 10.6038 9.93609 10.6038 8.50015C10.6038 7.06421 9.43977 5.90015 8.00383 5.90015Z" fill="#858898"/>
</svg>
