<svg width="24" height="24" viewBox="0 0 24 24" fill="none" xmlns="http://www.w3.org/2000/svg">
<path d="M13.624 4.00586C15.9223 4.12236 17.7499 6.02244 17.75 8.34961C17.75 9.19845 17.5054 9.98966 17.085 10.6592C18.6683 11.4849 19.75 13.1405 19.75 15.0498C19.75 17.6982 17.6701 19.8605 15.0547 19.9932L14.7998 20H5.5498C4.83192 19.9999 4.25 19.4181 4.25 18.7002C4.25011 17.9824 4.83199 17.4005 5.5498 17.4004H5.75V6.59961H5.5498C4.83192 6.5995 4.25 6.01771 4.25 5.2998C4.25011 4.58199 4.83199 4.00011 5.5498 4H13.4004L13.624 4.00586ZM8.34961 17.4004H14.7998C16.0978 17.4004 17.1504 16.3478 17.1504 15.0498C17.1504 13.7518 16.0978 12.6992 14.7998 12.6992H8.34961V17.4004ZM8.34961 10.0996H13.4004C14.3667 10.0995 15.1504 9.31593 15.1504 8.34961C15.1503 7.38337 14.3666 6.59972 13.4004 6.59961H8.34961V10.0996Z" fill="#35363F"/>
</svg>
