<svg width="22" height="22" viewBox="0 0 22 22" fill="none" xmlns="http://www.w3.org/2000/svg">
<path d="M12.0537 2.59668C13.2984 2.59676 14.4143 3.36614 14.8574 4.5293C15.1206 5.2209 15.7442 5.71089 16.4785 5.80273L18.4551 6.0498C19.9562 6.23745 21.0828 7.51359 21.083 9.02637V16.4023C21.083 18.0592 19.7399 19.4023 18.083 19.4023H3.91699C2.26014 19.4023 0.916992 18.0592 0.916992 16.4023V9.02637C0.917209 7.51359 2.04378 6.23745 3.54492 6.0498L5.52148 5.80273C6.25518 5.71093 6.87907 5.22017 7.14258 4.5293C7.58574 3.3661 8.70153 2.59672 9.94629 2.59668H12.0537ZM9.94629 4.29688C9.44094 4.29691 8.98397 4.58978 8.77051 5.04199L8.73145 5.13477C8.24447 6.41155 7.09118 7.31925 5.73242 7.48926L3.75586 7.73633C3.10546 7.81763 2.6174 8.37092 2.61719 9.02637V16.4023C2.61719 17.1203 3.19902 17.7021 3.91699 17.7021H18.083C18.801 17.7021 19.3828 17.1203 19.3828 16.4023V9.02637C19.3826 8.41194 18.9537 7.888 18.3643 7.75781L18.2441 7.73633L16.2676 7.48926C14.9094 7.31937 13.7556 6.4138 13.2686 5.13477L13.2295 5.04199C13.0303 4.62008 12.619 4.33684 12.1543 4.30078L12.0537 4.29688H9.94629ZM11 8.05859C13.1874 8.05882 14.9616 9.75185 14.9619 11.8398L14.9561 12.0342C14.8501 14.0321 13.1193 15.6209 11 15.6211C8.8124 15.6209 7.03906 13.9281 7.03906 11.8398C7.03934 9.75183 8.81257 8.05879 11 8.05859ZM11 9.75879C9.67614 9.75898 8.73954 10.7643 8.73926 11.8398C8.73926 12.9156 9.67594 13.9207 11 13.9209C12.324 13.9207 13.2617 12.9156 13.2617 11.8398C13.2614 10.7643 12.3238 9.75901 11 9.75879Z" fill="#35363F"/>
</svg>
