<svg width="24" height="24" viewBox="0 0 24 24" fill="none" xmlns="http://www.w3.org/2000/svg">
<path d="M12 5.00195C12.4693 5.00195 12.8494 5.38226 12.8496 5.85156V11.1494H18.1475C18.6169 11.1494 18.998 11.5296 18.998 11.999C18.998 12.4685 18.6169 12.8486 18.1475 12.8486H12.8496V18.1475C12.8496 18.6169 12.4694 18.998 12 18.998C11.5306 18.998 11.1504 18.6169 11.1504 18.1475V12.8486H5.85156C5.38232 12.8484 5.00195 12.4683 5.00195 11.999C5.00195 11.5297 5.38232 11.1496 5.85156 11.1494H11.1504V5.85156C11.1506 5.38226 11.5307 5.00195 12 5.00195Z" fill="#35363F"/>
</svg>
