<svg width="24" height="24" viewBox="0 0 24 24" fill="none" xmlns="http://www.w3.org/2000/svg">
<path d="M14.5186 3.65061H17C17.4694 3.65061 17.8495 4.03089 17.8496 4.50022C17.8496 4.96966 17.4694 5.34982 17 5.34982H15.124L10.957 18.6506H12.5C12.9694 18.6506 13.3495 19.0309 13.3496 19.5002C13.3496 19.9697 12.9694 20.3498 12.5 20.3498H9.81934C9.80536 20.3501 9.79139 20.3502 9.77734 20.3498H7.5C7.03056 20.3498 6.65039 19.9697 6.65039 19.5002C6.65053 19.0309 7.03065 18.6506 7.5 18.6506H9.1748L13.3428 5.34982H12C11.5306 5.34982 11.1504 4.96966 11.1504 4.50022C11.1505 4.03089 11.5306 3.65061 12 3.65061H14.4805C14.4931 3.65031 14.5058 3.65033 14.5186 3.65061Z" fill="#35363F"/>
</svg>
