<svg width="22" height="22" viewBox="0 0 22 22" fill="none" xmlns="http://www.w3.org/2000/svg">
<path d="M5.94418 7.496C7.38025 5.485 10.1905 5.04968 12.1873 6.47536C14.1583 7.88291 14.6521 10.6463 13.2343 12.6316L13.2128 12.6618C12.9402 13.0443 12.4091 13.1331 12.0269 12.8602C11.6449 12.5873 11.5565 12.0564 11.8295 11.6745L11.8511 11.6442C12.7131 10.4372 12.4212 8.73069 11.1999 7.85851C9.9528 6.96804 8.20856 7.25172 7.32827 8.48444L3.26708 14.1714C2.38677 15.4042 2.68538 17.1454 3.93243 18.036C5.15378 18.908 6.86132 18.631 7.72324 17.424L7.74501 17.3935C8.018 17.0112 8.54929 16.9227 8.9315 17.1958C9.31326 17.4686 9.40191 17.9991 9.1296 18.3812L9.10732 18.4125C7.68957 20.3978 4.91504 20.8275 2.94399 19.42C0.947217 17.9941 0.446868 15.194 1.883 13.183L5.94418 7.496ZM12.6252 3.6053C14.0195 1.60339 16.7886 1.14064 18.7761 2.52483C20.7896 3.92713 21.3224 6.72068 19.9101 8.74854L15.9161 14.4835C14.5037 16.5111 11.6987 16.9792 9.68543 15.577C7.69809 14.1927 7.17227 11.435 8.56652 9.43315L8.58755 9.40292C8.85569 9.01749 9.38555 8.92247 9.77092 9.1907C10.1563 9.45891 10.2512 9.98875 9.98293 10.3741L9.96109 10.4054C9.11363 11.6225 9.42545 13.3246 10.6567 14.1824C11.9142 15.0582 13.6558 14.7542 14.5216 13.5112L18.5154 7.77722C19.3812 6.53419 19.0623 4.79524 17.8048 3.91945C16.5733 3.06178 14.8685 3.3596 14.0208 4.57666L13.9992 4.60763C13.7308 4.9927 13.2011 5.08735 12.8159 4.81909C12.4307 4.55084 12.3358 4.02121 12.6039 3.63592L12.6252 3.6053Z" fill="#35363F"/>
</svg>
