<svg width="24" height="24" viewBox="0 0 24 24" fill="none" xmlns="http://www.w3.org/2000/svg">
<path d="M17.4071 4.00829C17.3253 3.54603 16.8849 3.23797 16.4227 3.31981C15.9606 3.4017 15.6526 3.84205 15.7342 4.30419L15.9793 5.68798C14.5156 4.85123 12.777 4.4647 10.9754 4.69677C6.57804 5.26328 3.4719 9.28797 4.03792 13.686C4.60414 18.0842 8.62868 21.192 13.0262 20.6255C17.4235 20.0589 20.5287 16.0332 19.9627 11.6352C19.9028 11.1698 19.477 10.8411 19.0116 10.9009C18.546 10.9608 18.2173 11.3865 18.2772 11.852C18.7235 15.3193 16.275 18.4922 12.8094 18.939C9.34357 19.3854 6.17093 16.9365 5.72445 13.4692C5.27811 10.0019 7.72647 6.82892 11.1922 6.38231C12.628 6.19737 14.0122 6.51031 15.1746 7.18602L13.5145 7.47997C13.0522 7.56181 12.7442 8.00307 12.826 8.46532C12.9079 8.92739 13.3483 9.23556 13.8104 9.1538L17.3446 8.52782C17.8066 8.4459 18.1146 8.00551 18.033 7.54345L17.4071 4.00829Z" fill="#ADAFBB"/>
</svg>
