<svg width="24" height="24" viewBox="0 0 24 24" fill="none" xmlns="http://www.w3.org/2000/svg">
<path d="M3.68726 10.75H20.6873" stroke="#35363F" stroke-width="1.5" stroke-linecap="round"/>
<path d="M16.4536 12.75C16.5789 12.75 16.7008 12.796 16.7883 12.8856C17.4253 13.5374 17.7499 14.3755 17.75 15.457C17.75 18.2878 15.4645 19.9688 12.0439 19.9688C10.5255 19.9687 9.11048 19.5997 8.01953 18.9658C6.92851 18.3319 6.25 17.359 6.25 16.5039C6.25009 15.9143 6.60386 15.546 7.17871 15.5459C7.5473 15.5459 7.81277 15.7375 8.22559 16.3125C9.08071 17.5804 10.4372 18.2441 12.1475 18.2441C14.2705 18.2441 15.7451 17.285 15.7451 15.6338C15.7449 14.3662 14.7718 13.5404 13.3125 13.1719V13.1719C13.066 13.1129 13.1088 12.75 13.3623 12.75H16.4536ZM11.9854 4.03125C13.5039 4.03127 14.8752 4.4145 15.9072 5.10742C16.8654 5.78553 17.411 6.6996 17.4111 7.40723C17.4111 7.9527 17.0571 8.29196 16.5264 8.29199C16.1135 8.29199 15.9074 8.14432 15.4209 7.56934C14.5363 6.38988 13.5624 5.75586 11.9111 5.75586C9.89149 5.75598 8.56445 6.68517 8.56445 8.27734C8.56446 9.53052 9.39062 10.2824 11.0566 10.71L13.7842 11.3877V11.3877C13.8193 11.3966 13.812 11.4492 13.7758 11.4492H8.18913C8.08335 11.4492 7.97958 11.4163 7.89652 11.3508C6.99876 10.643 6.54493 9.68287 6.54492 8.4248C6.54492 5.72677 8.68279 4.03125 11.9854 4.03125Z" fill="#35363F"/>
</svg>
