<svg width="24" height="24" viewBox="0 0 24 24" fill="none" xmlns="http://www.w3.org/2000/svg">
<path d="M6.59342 4.00829C6.67522 3.54603 7.11555 3.23797 7.5778 3.31981C8.03991 3.4017 8.34792 3.84205 8.26628 4.30419L8.02116 5.68798C9.48488 4.85123 11.2235 4.4647 13.0251 4.69677C17.4225 5.26328 20.5286 9.28797 19.9626 13.686C19.3964 18.0842 15.3718 21.192 10.9743 20.6255C6.577 20.0589 3.47181 16.0332 4.03776 11.6352C4.09771 11.1698 4.52351 10.8411 4.98893 10.9009C5.45451 10.9608 5.78321 11.3865 5.72331 11.852C5.27699 15.3193 7.72547 18.4922 11.1911 18.939C14.6569 19.3854 17.8296 16.9365 18.276 13.4692C18.7224 10.0019 16.274 6.82892 12.8083 6.38231C11.3725 6.19737 9.98827 6.51031 8.82585 7.18602L10.486 7.47997C10.9482 7.56181 11.2563 8.00307 11.1745 8.46532C11.0926 8.92739 10.6522 9.23556 10.1901 9.1538L6.65592 8.52782C6.19391 8.4459 5.88589 8.00551 5.96745 7.54345L6.59342 4.00829Z" fill="#ADAFBB"/>
</svg>
